<?xml version="1.0" encoding="UTF-8" standalone="no"?><!DOCTYPE svg PUBLIC "-//W3C//DTD SVG 1.1//EN" "http://www.w3.org/Graphics/SVG/1.1/DTD/svg11.dtd"><svg width="100%" height="100%" viewBox="0 0 30 29" version="1.1" xmlns="http://www.w3.org/2000/svg" xmlns:xlink="http://www.w3.org/1999/xlink" xml:space="preserve" xmlns:serif="http://www.serif.com/" style="fill-rule:evenodd;clip-rule:evenodd;stroke-linejoin:round;stroke-miterlimit:2;"><g><path d="M26.373,19.213c-0,3.881 -3.147,7.028 -7.022,7.028l-8.752,-0c-3.879,-0 -7.027,-3.147 -7.027,-7.028l-0,-8.752c-0,-3.877 3.148,-7.023 7.027,-7.023l8.752,-0c3.875,-0 7.022,3.146 7.022,7.023l-0,8.752Zm-5.986,-18.483l-10.83,-0c-4.799,-0 -8.693,3.89 -8.693,8.694l-0,10.828c-0,4.806 3.894,8.693 8.693,8.693l10.83,-0c4.801,-0 8.693,-3.887 8.693,-8.693l-0,-10.828c-0,-4.804 -3.892,-8.694 -8.693,-8.694" style="fill:#fff;fill-rule:nonzero;"/><path d="M15.352,19.357c-2.473,0 -4.475,-2.001 -4.475,-4.466c0,-2.475 2.002,-4.478 4.475,-4.478c2.469,0 4.47,2.003 4.47,4.478c0,2.465 -2.001,4.466 -4.47,4.466m0,-11.903c-4.106,0 -7.435,3.328 -7.435,7.437c0,4.098 3.329,7.424 7.435,7.424c4.103,0 7.431,-3.326 7.431,-7.424c0,-4.109 -3.328,-7.437 -7.431,-7.437" style="fill:#fff;fill-rule:nonzero;"/><path d="M24.158,7.338c0,1.045 -0.847,1.891 -1.889,1.891c-1.045,-0 -1.889,-0.846 -1.889,-1.891c0,-1.043 0.844,-1.893 1.889,-1.893c1.042,-0 1.889,0.85 1.889,1.893" style="fill:#fff;fill-rule:nonzero;"/></g></svg>