<?xml version="1.0" encoding="UTF-8" standalone="no"?><!DOCTYPE svg PUBLIC "-//W3C//DTD SVG 1.1//EN" "http://www.w3.org/Graphics/SVG/1.1/DTD/svg11.dtd"><svg width="100%" height="100%" viewBox="0 0 4100 1546" version="1.1" xmlns="http://www.w3.org/2000/svg" xmlns:xlink="http://www.w3.org/1999/xlink" xml:space="preserve" xmlns:serif="http://www.serif.com/" style="fill-rule:evenodd;clip-rule:evenodd;stroke-linejoin:round;stroke-miterlimit:2;"><g><path d="M199.413,1466.62c-39.984,0 -65.817,-26.612 -65.817,-79.929l-0,-190.746c34.725,3.35 69.342,9.529 104.287,21.996c50.488,17.9 77.379,67.533 77.379,136.212c0,73.875 -50.312,112.467 -115.85,112.467m-27.741,-460.258c43.871,-3.75 75.45,13.575 75.45,80.433c-0,56.213 -41.25,76.129 -80.729,76.25l-0.779,0.138c-10.313,-1.509 -20.871,-2.588 -32.017,-3.613l-0,-123.208c-0,-19.896 13.767,-27.834 38.075,-30m87.462,177.671c44.396,-13.192 72.813,-42.863 73.821,-101.475c1.25,-80.971 -49.446,-122.013 -161.283,-111.7c-56.913,5.066 -131.617,9.616 -167.067,13.558c-4.95,0.746 -4.237,21.217 2.484,20.712c26.508,-1.787 40.9,9.896 40.9,35.067l-0,407.813c-0,26.77 -9.705,34.27 -34.496,34.27c-6.629,0 -8.646,19.846 -0,19.846l181.129,0c130.017,0 206.283,-37.9 206.283,-155.887c0,-96.109 -54.337,-136.667 -141.771,-162.204" style="fill:#fff;fill-rule:nonzero;"/><path d="M2365.26,1466.62c-40,0 -65.73,-26.612 -65.73,-79.929l0,-190.746c34.55,3.35 69.238,9.529 104.167,21.996c50.35,17.9 77.45,67.533 77.45,136.212c0,73.875 -50.417,112.467 -115.887,112.467m-27.692,-460.258c43.821,-3.75 75.296,13.575 75.296,80.433c-0,56.213 -41.146,76.129 -80.588,76.25l-0.696,0.138c-10.52,-1.509 -21.216,-2.588 -32.05,-3.613l0,-123.208c0,-19.896 13.646,-27.834 38.038,-30m87.346,177.671c44.375,-13.192 72.883,-42.863 73.941,-101.475c1.13,-80.971 -49.429,-122.013 -161.287,-111.7c-56.996,5.066 -131.821,9.616 -167.133,13.558c-5.192,0.746 -4.271,21.217 2.412,20.712c26.579,-1.787 40.904,9.896 40.904,35.067l0,407.813c0,26.77 -9.808,34.27 -34.412,34.27c-6.892,0 -8.592,19.846 -0,19.846l180.991,0c130.088,0 206.442,-37.9 206.442,-155.887c0,-96.109 -54.392,-136.667 -141.858,-162.204" style="fill:#fff;fill-rule:nonzero;"/><path d="M1591.66,1375.5c-2.637,12.571 -10.416,54.046 -14.358,67.45c-4.233,15.587 -20.208,20.225 -38.054,20.225l-57.534,-0c-41.32,-0 -57.499,-13.213 -57.499,-29.496l-0,-284.462c-0,-26.842 9.72,-34.496 34.425,-34.496c6.787,-0 8.579,-19.863 -0,-19.863l-140.242,0c-8.542,0 -6.721,19.863 -0,19.863c24.775,-0 34.496,7.654 34.496,34.496l-0,290.795c-0,26.755 -9.721,34.255 -34.496,34.255c-6.721,-0.001 -8.542,20.087 -0,20.087l214.55,0c28.071,0 31.925,15.938 27.325,40.137c-1.25,6.738 18.004,12.226 19.479,3.855c5.346,-27.255 25.296,-130.729 30.488,-158.455c1.683,-8.4 -17.138,-11.091 -18.58,-4.391" style="fill:#fff;fill-rule:nonzero;"/><path d="M1914.2,1414.54c-2.517,12.412 -3.038,15 -6.892,28.404c-4.167,15.587 -20.033,20.225 -38.021,20.225l-57.62,-0c-41.059,-0 -57.413,-13.196 -57.413,-29.513l0,-132.17l83.313,-0c26.77,-0 38.283,1.941 38.283,26.629c-0,6.771 19.983,8.666 19.983,-0l0,-84.271c0,-8.663 -19.983,-6.854 -19.983,-0c-0,24.671 -11.513,26.546 -38.284,26.546l-83.312,-0l0,-110.067c0,-26.842 9.721,-34.358 34.458,-34.358l63.875,-0c26.854,-0 42.167,5.762 42.167,30.45c0,6.771 19.967,8.645 19.967,-0l-0,-92.067c-0,-8.713 -19.967,-6.837 -19.967,0c0,24.688 -15.313,30.521 -42.167,30.521l-204.046,-0c-8.612,-0 -6.875,19.846 0,19.846c24.546,-0 34.305,7.654 34.305,34.495l-0,290.801c-0,26.75 -9.759,34.25 -34.305,34.25c-6.875,-0 -8.612,20.07 0,20.07l214.617,0c27.9,0 31.754,15.955 27.188,40.175c-1.371,6.717 17.987,12.205 19.583,3.838c5.158,-27.258 17.554,-91.842 22.812,-119.688c1.634,-8.37 -16.945,-10.958 -18.541,-4.116" style="fill:#fff;fill-rule:nonzero;"/><path d="M647.879,1467.78c-49.341,0 -83.162,-51.792 -83.162,-169.966c-0,-118.455 33.821,-170.105 83.162,-170.105c49.6,0 83.35,51.65 83.35,170.105c0,118.175 -33.75,169.966 -83.35,169.966m0,-377.587c-85.991,-0 -163.662,72.725 -163.662,207.621c-0,134.704 77.671,207.412 163.662,207.412c86.025,0 163.663,-72.708 163.663,-207.412c-0,-134.896 -77.638,-207.621 -163.663,-207.621" style="fill:#fff;fill-rule:nonzero;"/><path d="M1234.78,1094.87l-139.512,-0c-8.646,-0 -6.792,19.841 -0,19.841c24.737,0.001 34.354,7.659 34.354,34.496l0.104,0l0,191.025c0,91.338 -30.604,128.284 -73.729,128.284c-43.371,-0 -73.717,-36.946 -73.717,-128.284l0,-191.025c0,-26.837 9.721,-34.495 34.496,-34.495c6.721,-0.001 8.492,-19.842 0,-19.842l-139.687,-0c-8.646,-0 -6.875,19.841 -0,19.841c24.654,0.001 34.341,7.659 34.341,34.496l0,191.025c0,113.684 60.05,164.984 144.567,164.984c84.408,-0 144.425,-51.3 144.425,-164.984l-0,-191.025c-0,-26.837 9.808,-34.495 34.358,-34.495c6.859,-0.001 8.717,-19.842 0,-19.842" style="fill:#fff;fill-rule:nonzero;"/><path d="M3757.43,1375.5c-2.621,12.571 -10.417,54.046 -14.271,67.45c-4.375,15.587 -20.208,20.225 -38.004,20.225l-57.671,-0c-41.146,-0 -57.433,-13.213 -57.433,-29.496l-0,-284.462c-0,-26.842 9.55,-34.496 34.392,-34.496c6.754,-0 8.541,-19.863 -0,-19.863l-140.225,0c-8.575,0 -6.805,19.863 -0,19.863c24.791,-0 34.358,7.654 34.358,34.496l-0,290.795c-0,26.755 -9.567,34.255 -34.358,34.255c-6.805,-0.001 -8.575,20.087 -0,20.087l214.637,0c27.933,0 31.996,15.938 27.15,40.137c-1.179,6.738 18.108,12.226 19.583,3.855c5.35,-27.255 25.055,-130.729 30.417,-158.455c1.563,-8.4 -16.958,-11.091 -18.575,-4.391" style="fill:#fff;fill-rule:nonzero;"/><path d="M4080.11,1414.54c-2.742,12.412 -3.071,15 -6.909,28.404c-4.304,15.587 -20.279,20.225 -38.004,20.225l-57.725,-0c-41.217,-0 -57.429,-13.196 -57.429,-29.513l-0,-132.17l83.246,-0c26.925,-0 38.35,1.941 38.35,26.629c-0,6.771 19.966,8.666 19.966,-0l0,-84.271c0,-8.663 -19.966,-6.854 -19.966,-0c-0,24.671 -11.425,26.546 -38.35,26.546l-83.246,-0l-0,-110.067c-0,-26.842 9.687,-34.358 34.496,-34.358l63.716,-0c26.942,-0 42.271,5.762 42.271,30.45c0,6.771 19.879,8.645 19.879,-0l0,-92.067c0,-8.713 -19.879,-6.837 -19.879,0c0,24.688 -15.329,30.521 -42.271,30.521l-204.029,-0c-8.558,-0 -6.721,19.846 0,19.846c24.721,-0 34.409,7.654 34.409,34.495l-0.001,290.801c0.001,26.75 -9.687,34.25 -34.408,34.25c-6.721,-0 -8.558,20.07 0,20.07l214.775,0c27.813,0 31.7,15.955 27.1,40.175c-1.216,6.717 17.988,12.205 19.633,3.838c5.159,-27.258 17.555,-91.842 22.78,-119.688c1.616,-8.37 -16.963,-10.958 -18.404,-4.116" style="fill:#fff;fill-rule:nonzero;"/><path d="M2813.72,1467.78c-49.442,0 -83.384,-51.792 -83.384,-169.966c0,-118.455 33.942,-170.105 83.384,-170.105c49.55,0 83.162,51.65 83.162,170.105c0,118.175 -33.612,169.966 -83.162,169.966m-0,-377.587c-86.021,-0 -163.729,72.725 -163.729,207.621c-0.001,134.704 77.708,207.412 163.729,207.412c86.129,0 163.666,-72.708 163.666,-207.412c0,-134.896 -77.537,-207.621 -163.666,-207.621" style="fill:#fff;fill-rule:nonzero;"/><path d="M3400.69,1094.87l-139.55,-0c-8.75,-0 -6.963,19.841 -0,19.841c24.55,0.001 34.341,7.659 34.341,34.496l0,191.025c0,91.338 -30.47,128.284 -73.629,128.284c-43.383,-0 -73.821,-36.946 -73.821,-128.284l0,-191.025c0,-26.837 9.725,-34.495 34.413,-34.495c6.804,-0.001 8.525,-19.842 -0,-19.842l-139.583,-0c-8.58,-0 -6.771,19.841 -0,19.841c24.72,0.001 34.375,7.659 34.375,34.496l-0,191.025c-0,113.684 60.087,164.984 144.616,164.984c84.409,-0 144.429,-51.3 144.429,-164.984l0,-191.025c0,-26.837 9.584,-34.495 34.409,-34.495c6.737,-0.001 8.646,-19.842 -0,-19.842" style="fill:#fff;fill-rule:nonzero;"/><path d="M1292.6,537.583c32.204,-28.854 61.979,-54.616 63.279,-69.27c0.384,-4.392 -1.925,-6.405 -5.587,-6.405c-5.642,0 -14.742,6.7 -21.825,13.334c-11.388,11.112 -27.067,27.133 -44.513,47.9c-24.479,29.15 -33.262,39.841 -51.179,63.921c31.75,-27.759 44.809,-35.78 59.825,-49.48m-60.937,103.438c5.712,-3.75 10.712,-8.071 15.416,-14.063c-3.854,2.017 -15.416,5 -20.625,6.425c-12.012,2.971 -19.2,5.938 -18.837,10.33c0.296,2.658 3.629,3.245 8.021,3.091c6.633,-0.712 11.754,-3.091 16.025,-5.783m22.55,-4.963c-13.834,10.313 -27.446,13.992 -38.575,14.359c-7.275,-0 -13.404,-1.009 -13.404,-6.705c0.295,-6.441 9.012,-9.391 21.791,-12.775c9.409,-2.329 19.809,-5.07 25.917,-7.658c3.162,-3.612 8.942,-12.117 10.504,-16.717c1.408,-3.77 2.396,-10.054 -3.229,-10.054c-6.129,0 -17.029,5.713 -29.079,15c-14.842,11.409 -24.6,21.146 -37.292,33.854c-2.587,2.742 -6.042,4.325 -9.758,4.688c-6.7,0.367 -6.438,-1.667 -4.584,-5.346c3.005,-6.633 7.971,-14.046 13.525,-22.433c3.196,-4.321 6.163,-8.663 9.809,-13.054l-0.313,-0c-4.583,3.958 -8.887,8.004 -11.979,10.745c-2.062,1.65 -3.071,2.017 -3.75,1.305c-0.587,-0.642 0,-1.6 1.688,-3.317c5.362,-4.775 13.645,-12.413 21.541,-18.75c12.017,-15.45 25.296,-32.467 40.729,-50.208c19.03,-22.813 60.021,-64.655 77.78,-77.413c9.062,-6.721 18.7,-13.437 28.42,-13.437c8.575,-0 11.321,6.075 10.417,12.133c-2.708,16.079 -34.967,42.917 -68.7,70.975c-20.433,16.683 -48.592,36.875 -68.279,54.617c-5.746,6.925 -22.483,30.8 -22.483,30.8l0.416,0.291c9.638,-10.016 21.442,-19.096 31.304,-25.762c6.821,-4.392 19.771,-11.113 29.53,-9.792c7.412,0.713 11.425,5.104 10.383,12.763c-1.304,9.737 -8.908,21.7 -22.329,31.891" style="fill:#fff;fill-rule:nonzero;"/><path d="M1286.64,620.617c-2.292,2 -3.855,2.658 -4.446,2c-0.521,-0.992 1.058,-2.642 2.45,-4.1c2.358,-2.309 6.962,-5.971 10.225,-8.296c4.496,-2.954 9.096,-6.063 16.179,-9.725c9.637,-5.05 20.037,-8.733 27.746,-9.096c2.375,0 5.05,0 5.05,1.354c-0,0.658 -1.009,0.658 -3.646,2.1c-7.934,3.596 -14.654,9.304 -24.183,18.333c-9.638,9.742 -18.542,22.867 -19.359,29.496c-0.258,3.405 1.042,5.696 4.638,5.696c7.412,0 20.812,-9.062 31.196,-20.329c0.295,-3.475 1.7,-8.371 6.075,-14.15c3.716,-5.033 8.387,-7.708 10.541,-8.733c1.196,-2.38 1.196,-5.971 1.196,-7.709c0,-3.612 -1.425,-4.704 -0.346,-5.346c1.404,-0.712 3.263,0.642 4.634,2.046c2.675,2.642 4.67,6.755 4.079,11.65c-1.109,8.092 -8.713,17.763 -19.13,27.138c1.371,0.729 5.121,0.433 6.338,-0c3,-0.575 6.717,-2.292 11.388,-5.696c4.408,-2.933 7.012,-5.279 10.675,-8.733c3.058,-2.588 4.725,-4.321 5.87,-3.246c0.78,0.937 -1.145,2.95 -4.479,5.991c-2.933,2.655 -6.321,5.692 -10.662,8.646c-5.45,3.767 -9.563,5.5 -12.792,6.146c-3.042,0.658 -7.083,0.658 -9.012,-0.646c-8.717,6.617 -24.409,16.304 -38.125,16.304c-10.4,0 -16.7,-4.895 -16.546,-14.741c0.366,-6.613 4.446,-14.704 10.746,-21.421l-0.33,-0.279c-2.254,1.962 -3.75,3.246 -5.97,5.346" style="fill:#fff;fill-rule:nonzero;"/><path d="M1381.71,610.863c-4.933,4.045 -8.645,7.083 -12.016,10.104c-2.709,2.308 -4.079,3.333 -5.017,2.604c-0.696,-0.663 0,-1.963 3.646,-5.35c3.662,-3.313 15.729,-13.4 23.821,-18.663c8.629,-6.145 13.125,-7.446 19.358,-7.446c7.117,0 7.708,1.025 3.75,5.363c-4.429,4.742 -10.729,12.379 -17.45,20.746c-5.296,7.083 -10.712,14.429 -12.379,18.125c-1.371,2.675 -1.371,4.966 -0.329,5.975c1.25,1.404 4.341,1.025 7.708,-0.558c7.413,-4.042 14.688,-9.392 25.138,-17.463c16.112,-12.413 25.383,-20.783 36.025,-29.133c2.866,-2.029 4.758,-3.767 9.829,-3.767c5.729,0 9.062,0.713 5.016,5.4c-6.041,7.358 -11.058,12.758 -17.85,21.421c-5.708,7.083 -9.979,13.075 -12.375,17.171c-1.946,3.283 -2.312,6.37 -1.041,7.291c1.7,1.371 4.375,0.663 7.708,-0.921c3.454,-1.733 9.875,-5.708 15.275,-10.104c6.496,-5.329 12.329,-10.379 15.921,-13.712c1.996,-2.017 4.116,-3.317 4.791,-2.379c0.992,0.658 -1.716,3.383 -2.795,4.391c-3.921,3.959 -12.38,10.971 -20.363,17.309c-6.079,4.758 -17.691,13.421 -28.733,13.421c-6.804,-0 -10.434,-2.95 -10.434,-8.005c0,-4.616 2.38,-9.304 5.313,-13.712c3.783,-5.4 10.05,-11.754 15.867,-17.467l-0.363,-0.329c-6.792,5.4 -18.108,14.442 -26.754,21.196c-13.871,10.312 -25.888,18.316 -35.938,18.316c-7.05,0 -11.425,-3.3 -11.025,-9.375c0.384,-4.6 3.317,-9.654 6.321,-13.695c6.7,-9.1 13.454,-17.017 23.8,-26.705c-2.446,0.938 -9.304,5.992 -14.425,9.95" style="fill:#fff;fill-rule:nonzero;"/><path d="M1492.22,607.563c-5,4.304 -10.175,9.012 -13.771,12.412c-1.996,1.65 -2.917,1.996 -3.663,0.992c-0.258,-0.992 0.746,-2.017 1.667,-3.021c1.371,-1.371 14.167,-12.396 24.55,-21.146c8.646,-11.025 25.05,-31.354 39.446,-47.812c11.3,-13.438 25.104,-28.142 39.825,-41.563c3.975,-3.683 7.796,-5.767 12.029,-5.767c3.437,0 5.037,1.425 5.037,2.45c-6.304,6.338 -35.904,38.821 -49.895,55.538c-22.363,27.137 -46.442,58.3 -53.492,73.733c-1.108,2.292 -3.071,6.996 -0.658,8.942c2.187,1.733 7.341,-0.296 10.312,-1.946c4.342,-2.308 9.046,-5.696 13.613,-9.446c6.125,-4.617 10.466,-8.312 14.912,-12.412c1.146,-1.284 4.008,-3.609 5,-2.588c0.675,0.646 -0.367,2.017 -2.396,4.046c-4.1,3.942 -12.362,11.321 -20.487,17.292c-6.788,5.054 -18.959,13.437 -30.088,13.437c-6.7,0 -10.712,-2.967 -10.416,-8.942c0.4,-8.087 8.787,-21.145 18.7,-33.904l-0.225,-0.296Z" style="fill:#fff;fill-rule:nonzero;"/><path d="M1559.12,615.929c-13.679,13.334 -19.392,22.154 -18.7,26.392c0.296,2.396 2.017,3.333 4.342,3.333c6.458,0 19.096,-7.275 28.091,-15.729c10.796,-9.308 22.88,-23.733 23.142,-28.996c0.258,-4.408 -2.379,-6.075 -5.971,-6.075c-6.792,0 -18.958,9.096 -30.904,21.075m58.317,-24.512c6.979,-0.154 7.637,1.354 4.304,5.4c-4.304,5.033 -11.771,13.404 -18.629,22.133c-4.442,5.367 -8.817,10.975 -11.755,16.458c-2.341,3.909 -2.341,6.617 -1.074,7.659c1.737,1.3 5.054,-0 7.708,-1.304c3.421,-1.734 9.758,-6.075 14.983,-10.45c7.204,-5.696 12.396,-10.33 16.179,-13.734c1.929,-1.65 3.629,-3.366 4.705,-2.291c1.008,0.92 -0.659,2.658 -4.409,5.991c-4.375,4.046 -12.341,11.109 -18.733,16.004c-6.717,5.417 -17.692,13.421 -28.75,13.421c-6.442,0 -9.408,-2.966 -9.792,-6.996c-0.258,-3.679 1.667,-8.3 4.759,-12.05l-0.296,-0.345c-8.8,7.708 -24.184,18.75 -36.909,19.391c-7.466,0.434 -15.104,-2.587 -13.804,-13.421c0.696,-4.895 3.492,-10.329 9.6,-17.308l-0.396,-0.296c-1.079,0.938 -2.416,2.292 -4.5,3.892c-1.212,1.004 -2.22,1.754 -2.966,1.004c-0.625,-1.004 1.075,-2.95 4.6,-6.354c1.008,-0.988 6.787,-5.675 10.175,-8c3.262,-2.363 9.046,-6.042 15.312,-9.292c13.175,-6.771 24.896,-10.833 33.609,-9.512c6.633,1.146 8.979,7.05 6.979,12.762c8.041,-8.316 13.716,-12.762 19.1,-12.762" style="fill:#fff;fill-rule:nonzero;"/><path d="M1688.4,642.021c0.296,-7.342 7.779,-15.708 14.063,-23.504c4.999,-5.975 10.12,-11.6 14.045,-16.288c1.338,-1.733 2.05,-3.783 0.346,-4.771c-1.683,-0.958 -5.346,0.434 -8.766,2.084c-6.005,2.95 -15.38,8.662 -26.025,17.029c-14.771,11.492 -22.775,19.117 -37.55,30.383c-3.109,2.446 -5.034,3.088 -8.717,3.088c-4.704,-0 -7.046,-0.642 -4.338,-5.329c2.413,-4.338 9.321,-15.45 14.721,-22.446c3.679,-5.038 9.688,-12.709 13.438,-17.45c2.379,-2.967 2.966,-4.617 2.379,-5.625c-1.042,-1.3 -2.971,-0.746 -5.158,0.35c-3.942,1.958 -8.975,5.625 -12.95,9.025c-4.409,3.75 -9.721,8.371 -14.43,12.691c-3.383,3.055 -4.666,4.063 -5.708,3.055c-0.592,-1.042 1.042,-2.688 5,-6.371c4.042,-3.75 11.388,-10.675 17.429,-15.45c9.096,-7.05 15.817,-11.096 22.9,-11.096c6.3,-0 8.296,3.75 8.296,7.362c0,4.03 -2.671,8.509 -7.083,14.43c-5,6.787 -12.046,15.795 -15.642,21.145l0.225,0.346c8.146,-6.616 19.167,-16.458 30.888,-25.121c11.716,-8.629 26.404,-18.162 36.545,-18.162c6.963,-0 10.9,3.458 10.242,9.1c-1.008,6.058 -7.95,13.696 -13.333,20.467c-5.296,6.287 -9.479,11.995 -11.129,14.725c-2.621,4.337 -2.621,6.333 -1.284,7.375c1.667,1.304 5.363,-0 8.004,-1.3c4.046,-2.034 8.8,-4.792 16.092,-10.45c5.767,-4.359 12.396,-10.35 16.079,-13.734c2.621,-2.308 3.729,-2.675 4.338,-2.033c0.729,0.662 -0.296,2.033 -2.671,4.429c-3.058,2.95 -13.021,11.979 -20.071,17.308c-6.596,5.034 -19.846,13.421 -30.158,13.421c-6.388,0 -10.379,-2.971 -10.017,-8.683" style="fill:#fff;fill-rule:nonzero;"/><path d="M1773.09,615.929c-13.7,13.334 -19.359,22.154 -18.767,26.392c0.362,2.396 1.996,3.333 4.375,3.333c6.421,0 19.096,-7.275 28.037,-15.729c10.763,-9.308 22.775,-23.733 23.192,-28.996c0.333,-4.408 -2.271,-6.075 -5.971,-6.075c-6.754,0 -18.783,9.096 -30.867,21.075m-75.295,95.367c-28.055,18.75 -52.934,41.996 -54.2,59.321c-0.488,5.037 1.666,8.075 5,8.996c5.312,1.733 15,-1.65 21.145,-5.263c15.034,-9.096 34.721,-26.475 61.18,-60.312c13.383,-17.1 27.116,-35.192 33.783,-44.567c-19.775,13.058 -35.675,21.062 -66.908,41.825m107.412,-119.879c6.788,1.146 8.388,6.041 7.638,11.387l0.416,0c7.45,-8.366 11.063,-11.387 16.096,-11.387c6.388,-0 8.054,1.354 4.342,5.4c-6.079,7.133 -10.75,13.404 -17.467,22.133c-5.608,7.363 -17.396,23.75 -27.275,37.083c7.204,-4.32 22.05,-13.333 32.05,-21.058c7.275,-5.712 13.734,-10.658 20.675,-17.029c1.667,-1.738 3.438,-2.379 4.063,-1.738c1.008,1.025 -1.804,3.471 -3.4,5.071c-4.934,4.6 -11.913,10.379 -19.709,16.442c-12.012,9.096 -26.02,17.758 -36.82,23.729c-14.463,21.079 -36.217,49.271 -45.817,59.95c-22.517,24.808 -49.288,45.883 -68.992,56.267c-8.646,4.55 -16.771,7.066 -23.141,7.066c-8.388,0 -17.434,-2.725 -15.73,-14.116c2.671,-20.067 41.542,-48.209 67.655,-65.38c30.833,-19.758 44.808,-26.962 67.916,-41.391c5.971,-8.367 17.067,-23.471 22.325,-31.459l-0.104,-0.433c-9.129,7.779 -23.817,18.108 -36.196,18.75c-7.429,0.433 -14.741,-2.308 -13.733,-13.421c0.658,-4.896 3.3,-10.329 9.2,-17.308l-0.225,-0.296c-0.921,0.938 -2.379,2.292 -4.375,3.892c-1.3,1.004 -2.292,1.754 -2.933,1.004c-0.73,-1.004 1.633,-3.592 5.312,-6.996c1.075,-1.004 6.075,-5.033 9.342,-7.358c3.383,-2.363 8.8,-6.042 15.4,-9.292c12.046,-6.492 24.896,-10.833 33.487,-9.512" style="fill:#fff;fill-rule:nonzero;"/><path d="M1881.03,617.575c8.229,-5.713 13.284,-12.742 13.717,-17.379c0.225,-3.038 -1.025,-4.738 -4.117,-4.738c-2.966,0 -8.071,3.296 -14.791,9.705c-5.275,5.049 -13.73,15.795 -17.584,22.445c6.596,-1.733 15.625,-5.329 22.775,-10.033m11.2,16.754c6.459,-4.429 14.254,-10.417 20.554,-16.112c1.93,-1.65 3.005,-2.013 3.596,-1.284c0.675,1.005 -0.591,2.742 -2.708,4.321c-4.221,4.063 -14.983,12.709 -21.025,16.825c-14.167,9.304 -26.496,13.629 -37.813,13.629c-12.57,0 -18.162,-4.758 -17.762,-13.333c0.262,-6.704 3.333,-12.779 9.983,-20.8l-0.296,-0.346c-1.004,0.988 -4.6,4.392 -6.716,6.042c-1.704,1.3 -2.709,1.683 -3.371,1.058c-0.604,-1.058 0.662,-2.362 2.067,-3.717c4.495,-4.045 7.466,-6.404 12.308,-10c3.787,-2.758 10.175,-6.666 16.546,-10.104c9.621,-5.05 19.671,-9.254 28.837,-9.254l0.104,0c7.413,0 10.088,4.6 9.95,8.942c-0.816,8.662 -11.512,15.346 -21.562,20.416c-9.671,4.705 -21.113,8.646 -28.821,10.696c-1.267,2.654 -1.962,5.659 -1.962,7.709c-0,5.033 2.587,7.812 7.741,7.812c4.271,0 15.729,-2.483 30.35,-12.5" style="fill:#fff;fill-rule:nonzero;"/><path d="M1970.69,600.492c-0.001,4.325 -8.126,11.371 -15.505,20.121c-5.52,6.65 -9.654,12.345 -11.32,15.729c-1.667,2.971 -1.667,5.416 -0.292,6.337c1.229,1.025 3.591,0.663 7.204,-1.354c3.921,-2.012 9.858,-5.642 15.208,-10.017c7.221,-5.695 11.421,-9.045 15.796,-13.091c2.225,-2.292 4.308,-3.313 4.829,-2.671c1.025,1.025 -1.266,2.983 -3.871,5.729c-3.995,3.679 -10.783,9.65 -19.166,16.004c-7.017,5.4 -18.771,13.421 -29.792,13.421c-7.017,0 -10.608,-3.75 -10.279,-8.679c0.154,-7.346 8.646,-16.7 15.987,-23.804c8.163,-7.604 20.888,-16.717 21.667,-19.025c1.408,-3.75 -4.896,-2.675 -13.35,-2.675c-3.229,-0 -5.937,-0 -7.637,-0.659c-2.605,2.9 -7.43,7.655 -12.692,12.709c-5.746,5.329 -9.792,9.008 -13.438,12.396c-3.07,2.604 -4.287,3.35 -4.895,2.604c-0.817,-0.642 0.295,-2.292 3.525,-5.35c3.975,-3.592 7.05,-6.354 13.175,-12.029c4.604,-4.342 9.045,-8.734 11.72,-11.755c-3.195,-1.875 -3.42,-6.65 0,-10.695c2.605,-3.296 7.238,-5.605 12.725,-5.605c2.675,0 5.642,1.267 5.971,3.313c-2.375,1.65 -3.679,2.587 -5.675,4.758c-4.408,4.617 -3.421,6.929 1.009,7.204c9.304,0.455 19.095,0.746 19.095,6.788l0,0.296Z" style="fill:#fff;fill-rule:nonzero;"/><path d="M2056.26,546.95c4.459,0 6.459,3.683 2.463,8.663c-4.025,5.333 -12.413,9.029 -15.817,9.029c-1.629,-1.946 -2.012,-7.013 -0.225,-11.354c1.929,-5.034 6.913,-6.338 13.438,-6.338l0.141,0Zm-61.146,63.908c-5.141,4.046 -8.716,7.084 -12.12,10.105c-2.692,2.308 -3.921,3.35 -4.93,2.604c-0.745,-0.642 0,-1.946 3.717,-5.35c3.488,-3.313 15.692,-13.4 23.696,-18.663c8.646,-6.146 12.917,-7.446 19.325,-7.446c7.083,0 7.792,1.025 3.679,5.346c-5.971,6.721 -11.162,13.158 -17.987,21.492c-5.796,6.912 -9.721,13.004 -11.788,16.458c-1.946,3.613 -2.308,5.921 -0.937,7.275c1.683,1.392 4.6,0.663 7.9,-0.921c3.404,-1.733 9.112,-5.416 14.912,-10.104c6.892,-5.796 10.054,-8.383 15.313,-13.437c3.004,-2.671 4.375,-4.009 5.383,-2.934c1.075,0.921 -2.675,4.392 -3.717,5.329c-3.958,3.959 -12.379,11.338 -19.166,16.667c-6.53,5.4 -18.038,13.854 -28.942,13.854c-7.117,0 -10.088,-3.4 -10.088,-8.816c0,-4.238 2.417,-8.646 5,-12.692c6.617,-10.383 19.813,-24.079 25.038,-28.7c-2.225,0.921 -9.342,5.992 -14.288,9.933" style="fill:#fff;fill-rule:nonzero;"/><path d="M2075.4,617.575c8.387,-5.713 13.387,-12.742 13.733,-17.379c0.367,-3.038 -1.004,-4.738 -4.062,-4.738c-2.984,0 -7.967,3.296 -14.634,9.705c-5.416,5.049 -13.804,15.795 -17.829,22.445c6.771,-1.733 15.779,-5.329 22.792,-10.033m11.458,16.754c6.392,-4.429 14.029,-10.417 20.367,-16.112c2.012,-1.65 3.004,-2.013 3.716,-1.284c0.746,1.005 -0.712,2.742 -2.745,4.321c-4.375,4.063 -14.946,12.709 -20.988,16.825c-14.183,9.304 -26.496,13.629 -37.883,13.629c-12.429,0 -18.213,-4.758 -17.846,-13.333c0.417,-6.704 3.487,-12.779 10.137,-20.8l-0.345,-0.346c-0.992,0.988 -4.6,4.392 -6.705,6.042c-1.595,1.3 -2.67,1.683 -3.454,1.058c-0.483,-1.058 0.784,-2.362 2.121,-3.717c4.338,-4.045 7.308,-6.404 12.5,-10c3.592,-2.758 9.858,-6.666 16.388,-10.104c9.654,-5.05 19.67,-9.254 28.716,-9.254l0.292,0c7.312,0 10.087,4.6 9.758,8.942c-0.712,8.662 -11.387,15.346 -21.475,20.416c-9.721,4.705 -21.096,8.646 -28.75,10.696c-1.337,2.654 -1.962,5.659 -1.962,7.709c-0,5.033 2.587,7.812 7.571,7.812c4.441,0 15.779,-2.483 30.587,-12.5" style="fill:#fff;fill-rule:nonzero;"/><path d="M2128.04,642.683c-9.167,11.059 -22.45,20.417 -29.117,24.446c-3.125,1.754 -4.167,2.046 -4.512,1.754c-0.575,-1.008 0.762,-1.754 2.812,-4.046c3.992,-4.325 9.338,-10.12 12.308,-16.458c1.634,-3.021 -0.295,-4.654 0.696,-7.362c1.459,-4.304 8.417,-7.05 15.467,-7.05c3.021,-0 4.929,0.712 4.929,3.004c0,1.391 -0.658,3.387 -2.583,5.712" style="fill:#fff;fill-rule:nonzero;"/><path d="M2207.35,651.704c-12.433,0 -18.508,-4.896 -17.883,-13.996c0.779,-6.787 4.462,-13.783 9.737,-20.137l-0.346,-0.346c-0.904,1.004 -3.612,3.383 -5.675,5.05c-1.791,1.65 -3.716,2.675 -4.341,2.033c-0.625,-1.041 0.625,-2.329 2.1,-3.7c4.304,-4.025 7.308,-6.404 12.362,-10c3.734,-2.741 10.329,-7.1 16.042,-10.121c11.371,-6.058 22.083,-10.4 30.85,-9.079c7.779,1.354 10.433,6.492 9.062,12.759c-1.283,6.441 -7.137,11.391 -11.441,11.391c-5.642,0 -5.642,-4.687 -2.55,-9.741c3.558,-6.267 4.929,-10.363 0.796,-10.955c-3.609,-0.712 -11.234,4.342 -20.729,13.992c-8.976,9.1 -17.655,21.809 -18.696,29.813c-0.729,5.05 2.379,7.687 7.637,7.687c4.375,0 16.059,-1.996 30.992,-12.029c6.3,-4.408 14.496,-11.408 19.979,-16.096c2,-1.646 3.042,-2.029 3.646,-1.283c0.696,1.008 -0.604,2.292 -2.604,4.325c-4.375,4.042 -13.73,12.116 -19.913,16.004c-11.546,8.092 -27.308,14.429 -38.696,14.429l-0.329,0Z" style="fill:#fff;fill-rule:nonzero;"/><path d="M2266.96,620.617c-2.396,2 -3.734,2.658 -4.463,2c-0.625,-0.992 1.079,-2.642 2.346,-4.1c2.412,-2.309 6.925,-5.971 10.433,-8.296c4.392,-2.954 9.013,-6.063 16.042,-9.725c9.846,-5.05 20.137,-8.733 27.762,-9.096c2.292,0 5.05,0 5.05,1.354c0,0.658 -0.954,0.658 -3.716,2.1c-7.967,3.596 -14.667,9.304 -24.063,18.333c-9.65,9.742 -18.8,22.867 -19.337,29.496c-0.329,3.405 0.954,5.696 4.6,5.696c7.429,0 20.883,-9.062 31.266,-20.329c0.138,-3.475 1.65,-8.371 5.992,-14.15c3.592,-5.033 8.333,-7.708 10.692,-8.733c0.887,-2.38 0.887,-5.971 0.887,-7.709c0,-3.612 -1.25,-4.704 -0.279,-5.346c1.408,-0.712 3.333,0.642 4.617,2.046c2.779,2.642 4.845,6.755 4.062,11.65c-1.004,8.092 -8.679,17.763 -19.096,27.138c1.442,0.729 5.034,0.433 6.354,-0c3.092,-0.575 6.738,-2.292 11.459,-5.696c4.304,-2.933 6.996,-5.279 10.696,-8.733c2.983,-2.588 4.704,-4.321 5.712,-3.246c1.021,0.937 -1.008,2.95 -4.375,5.991c-2.954,2.655 -6.321,5.692 -10.75,8.646c-5.346,3.767 -9.287,5.5 -12.742,6.146c-2.933,0.658 -7.029,0.658 -8.925,-0.646c-8.712,6.617 -24.424,16.304 -38.229,16.304c-10.433,0 -16.7,-4.895 -16.458,-14.741c0.383,-6.613 4.463,-14.704 10.75,-21.421l-0.279,-0.279c-2.325,1.962 -3.783,3.246 -6.008,5.346" style="fill:#fff;fill-rule:nonzero;"/><path d="M2408.4,642.021c0.487,-7.342 7.829,-15.708 14.287,-23.504c4.88,-5.975 10.088,-11.6 14.013,-16.288c1.333,-1.733 2.012,-3.783 0.417,-4.771c-1.755,-0.958 -5.488,0.434 -8.805,2.084c-6.008,2.95 -15.416,8.662 -26.179,17.029c-14.725,11.492 -22.708,19.117 -37.537,30.383c-2.934,2.446 -4.98,3.088 -8.625,3.088c-4.688,-0 -7.034,-0.642 -4.43,-5.329c2.45,-4.338 9.463,-15.45 14.759,-22.446c3.783,-5.038 9.721,-12.709 13.316,-17.45c2.48,-2.967 3.159,-4.617 2.48,-5.625c-0.955,-1.3 -3.071,-0.746 -5,0.35c-4.113,1.958 -9.096,5.625 -13.192,9.025c-4.288,3.75 -9.617,8.371 -14.288,12.691c-3.354,3.055 -4.725,4.063 -5.575,3.055c-0.745,-1.042 0.85,-2.688 4.896,-6.371c4.046,-3.75 11.321,-10.675 17.363,-15.45c9.183,-7.05 15.796,-11.096 22.775,-11.096c6.458,-0 8.421,3.75 8.421,7.362c-0,4.03 -2.671,8.509 -7.013,14.43c-4.967,6.787 -12.05,15.795 -15.8,21.145l0.4,0.346c8.054,-6.616 19.117,-16.458 30.817,-25.121c11.596,-8.629 26.425,-18.162 36.475,-18.162c6.962,-0 10.954,3.458 10.433,9.1c-1.108,6.058 -7.983,13.696 -13.471,20.467c-5.487,6.287 -9.341,11.995 -11.025,14.725c-2.654,4.337 -2.654,6.333 -1.283,7.375c1.508,1.304 5.296,-0 7.967,-1.3c4.046,-2.034 8.646,-4.792 16.096,-10.45c5.729,-4.359 12.325,-10.35 16.025,-13.734c2.67,-2.308 3.816,-2.675 4.304,-2.033c0.641,0.662 -0.384,2.033 -2.621,4.429c-2.971,2.95 -13.179,11.979 -20.071,17.308c-6.7,5.034 -19.737,13.421 -30.242,13.421c-6.266,0 -10.191,-2.971 -10.087,-8.683" style="fill:#fff;fill-rule:nonzero;"/><path d="M2574.58,537.146c32.258,-28.717 62.067,-54.533 63.3,-69.238c0.313,-3.991 -1.683,-5.991 -5.4,-5.991c-5.346,-0 -13.404,6.687 -20.696,13.333c-10.971,10.383 -26.212,26.842 -43.541,47.625c-24.671,28.975 -33.088,40.104 -51.196,63.921c31.458,-27.484 42.55,-36.146 57.533,-49.65m-152.708,178.904c-10.954,16.683 -26.684,40.85 -32.134,53.262c-1.945,4.309 -1.633,6.913 0,7.988c1.925,1.008 4.442,-0 8.384,-2.933c8.716,-6.721 22.554,-23.821 36.562,-48.213c12.659,-21.771 25.159,-54.671 29.517,-69.029c-21.583,27.467 -23.821,31.458 -42.329,58.925m214.775,-257.9c7.604,-0 10.191,5.767 9.221,12.137c-2.555,16.075 -34.688,42.484 -68.596,70.692c-20.017,16.65 -46.442,36.792 -66.3,54.479c-17.363,21.496 -27.242,34.896 -39.584,51.929c3.455,-0.575 9.825,-2.675 14.584,-4.687c4.6,-1.929 11.354,-4.983 18.646,-9.742c7.516,-4.616 15.066,-10.987 19.008,-14.737c1.492,-1.267 4.429,-4.013 5.433,-2.934c0.938,0.921 -1.925,3.663 -3.125,4.688c-4.583,4.6 -13.212,11.683 -21.7,17.012c-9.391,5.713 -20.087,9.967 -26.475,12.413c-3.596,1.304 -6.704,3.021 -8.35,5.329c-2.291,3.492 -2.971,5.35 -4.621,10.696c-5.466,17.467 -16.508,43.575 -28.087,63.679c-10.783,18.771 -25.471,39.463 -38.925,49.583c-5,3.959 -9.983,6.042 -14.358,5.334c-4.48,-0.729 -7.1,-4.759 -5.4,-12.763c3.787,-17.966 26.2,-56.908 49.862,-89.391c17.133,-23.525 39.238,-52.242 59.046,-77.346l-0.488,-0.346c-3.904,3.092 -11.595,10.033 -17.675,15.8c-1.941,1.65 -2.949,1.996 -3.662,1.3c-0.675,-0.658 0,-1.596 2.017,-3.696c8.037,-7.708 19.808,-17.379 27.116,-23.142c15.05,-18.77 27.413,-34.133 37.171,-45.887c25.85,-30.017 60.467,-64.929 77.271,-77.342c8.317,-5.991 18.129,-13.058 27.521,-13.058l0.45,-0Z" style="fill:#fff;fill-rule:nonzero;"/><path d="M2598.32,546.95c4.337,0 6.337,3.683 2.483,8.663c-4.046,5.333 -12.467,9.029 -15.8,9.029c-1.7,-1.946 -2.05,-7.013 -0.262,-11.354c1.895,-5.034 6.858,-6.338 13.316,-6.338l0.263,0Zm-61.288,63.908c-5,4.046 -8.591,7.084 -11.891,10.105c-2.863,2.308 -4.009,3.35 -5.121,2.604c-0.746,-0.642 -0,-1.946 3.629,-5.35c3.75,-3.313 15.887,-13.4 23.783,-18.663c8.788,-6.146 13.163,-7.446 19.359,-7.446c7.154,0 7.795,1.025 3.787,5.346c-6.042,6.721 -11.321,13.158 -18.021,21.492c-5.729,6.912 -9.725,13.004 -11.704,16.458c-2.133,3.613 -2.483,5.921 -1.025,7.275c1.513,1.392 4.621,0.663 8.004,-0.921c3.267,-1.733 9.013,-5.416 14.654,-10.104c7.171,-5.796 10.088,-8.383 15.538,-13.437c2.933,-2.671 4.271,-4.009 5.279,-2.934c1.042,0.921 -2.642,4.392 -3.612,5.329c-4.117,3.959 -12.413,11.338 -19.096,16.667c-6.896,5.4 -18.109,13.854 -29.188,13.854c-7.012,0 -10.05,-3.4 -10.05,-8.816c0,-4.238 2.292,-8.646 4.984,-12.692c6.733,-10.383 19.825,-24.079 25.12,-28.7c-2.325,0.921 -9.341,5.992 -14.429,9.933" style="fill:#fff;fill-rule:nonzero;"/><path d="M2633.26,634.325c9.238,-5.713 16.284,-11.7 21.963,-16.754c1.666,-1.371 3.262,-2.95 4.391,-2.013c0.713,0.642 -0.712,2.671 -3.733,5.417c-3.296,2.95 -9.529,8.279 -16.908,13.35c-7.517,4.983 -14.879,8.733 -21.217,11.338c-5.971,2.725 -18.021,6.041 -28.158,6.041c-17.692,0 -21.354,-10.696 -19.95,-20.054c1.25,-9.671 8.891,-17.742 16.979,-17.446c4.637,0.417 7.017,3.75 6.392,7.413c-0.592,3.333 -3.059,5.987 -7.467,8.3c-3.071,1.733 -7.308,5.483 -7.517,10.104c-0.45,5.329 3.509,8.367 9.634,8.367c6.687,-0 14.983,-5.33 22.483,-18.038c6.008,-9.742 12.05,-29.862 15.662,-34.183l0,-0.313c-3.283,3.35 -10.4,8.663 -16.041,12.709c-4.813,3.295 -10.038,6.716 -12.729,8.02c-1.355,0.642 -2.688,1.371 -3.4,0.363c-0.192,-1.025 -0,-1.667 1.733,-2.742c3.267,-1.891 8.612,-5.35 14.062,-9.391c5.975,-4.325 11.913,-9.359 19.83,-16.025c0.504,-1.305 3.07,-4.046 5.258,-5.696c3.662,-2.654 7.379,-3.679 9.704,-3.679c7.796,-0 2.604,4.337 -1.733,7.083c-2.971,1.942 -6.304,3.317 -7.971,4.912c-2.671,2.742 -2.188,5.4 -2.188,9.08c0.142,9.375 0.921,18.037 -3.07,27.57c-2.138,4.6 -6.738,10.954 -10.888,13.696c3.821,-1.387 9.446,-4.046 14.879,-7.429" style="fill:#fff;fill-rule:nonzero;"/><path d="M2694.06,617.575c8.454,-5.713 13.455,-12.742 13.8,-17.379c0.28,-3.038 -1.075,-4.738 -4.046,-4.738c-3.125,0 -8.087,3.296 -14.649,9.705c-5.417,5.049 -13.767,15.795 -17.851,22.445c6.721,-1.733 15.696,-5.329 22.746,-10.033m11.388,16.754c6.458,-4.429 14.062,-10.417 20.433,-16.112c2.017,-1.65 2.933,-2.013 3.717,-1.284c0.729,1.005 -0.784,2.742 -2.534,4.321c-4.516,4.063 -15.158,12.709 -21.166,16.825c-14.146,9.304 -26.459,13.629 -37.917,13.629c-12.429,0 -18.037,-4.758 -17.687,-13.333c0.329,-6.704 3.295,-12.779 10.016,-20.8l-0.296,-0.346c-1.112,0.988 -4.791,4.392 -6.72,6.042c-1.667,1.3 -2.671,1.683 -3.35,1.058c-0.659,-1.058 0.679,-2.362 2.083,-3.717c4.271,-4.045 7.275,-6.404 12.242,-10c3.712,-2.758 10.016,-6.666 16.441,-10.104c9.667,-5.05 19.809,-9.254 28.75,-9.254l0.329,0c7.413,0 10.121,4.6 9.721,8.942c-0.712,8.662 -11.371,15.346 -21.3,20.416c-9.791,4.705 -21.166,8.646 -28.891,10.696c-1.338,2.654 -1.925,5.659 -1.925,7.709c-0,5.033 2.654,7.812 7.604,7.812c4.441,0 15.608,-2.483 30.45,-12.5" style="fill:#fff;fill-rule:nonzero;"/><path d="M2783.9,600.492c-0,4.325 -8.159,11.371 -15.433,20.121c-5.713,6.65 -9.755,12.345 -11.388,15.729c-1.596,2.971 -1.596,5.416 -0.521,6.337c1.563,1.025 3.8,0.663 7.467,-1.354c3.783,-2.012 9.754,-5.642 15.208,-10.017c7.254,-5.695 11.267,-9.045 15.675,-13.091c2.413,-2.292 4.359,-3.313 5.017,-2.671c1.008,1.025 -1.404,2.983 -4.008,5.729c-4.08,3.679 -10.68,9.65 -19.167,16.004c-6.996,5.4 -18.629,13.421 -29.725,13.421c-7.013,0 -10.746,-3.75 -10.5,-8.679c0.416,-7.346 8.8,-16.7 16.283,-23.804c7.9,-7.604 20.713,-16.717 21.633,-19.025c1.3,-3.75 -4.933,-2.675 -13.42,-2.675c-3.317,-0 -5.975,-0 -7.725,-0.659c-2.588,2.9 -7.275,7.655 -12.692,12.709c-5.713,5.329 -9.671,9.008 -13.267,12.396c-3.125,2.604 -4.458,3.35 -5.05,2.604c-0.746,-0.642 0.259,-2.292 3.592,-5.35c4.133,-3.592 7.05,-6.354 13.179,-12.029c4.654,-4.342 8.992,-8.734 11.65,-11.755c-3.092,-1.875 -3.371,-6.65 0,-10.695c2.588,-3.296 7.413,-5.605 12.604,-5.605c2.742,0 5.834,1.267 6.196,3.313c-2.483,1.65 -3.629,2.587 -5.779,4.758c-4.375,4.617 -3.371,6.929 1.075,7.204c9.342,0.455 19.096,0.746 19.096,6.788l-0,0.296Z" style="fill:#fff;fill-rule:nonzero;"/><path d="M2869.58,546.95c4.271,0 6.388,3.683 2.259,8.663c-3.996,5.333 -12.346,9.029 -15.679,9.029c-1.667,-1.946 -2.084,-7.013 -0.346,-11.354c2.012,-5.034 7.05,-6.338 13.437,-6.338l0.329,0Zm-61.354,63.908c-4.966,4.046 -8.679,7.084 -11.946,10.105c-2.67,2.308 -4.146,3.35 -5.066,2.604c-0.713,-0.642 -0,-1.946 3.591,-5.35c3.7,-3.313 15.817,-13.4 23.838,-18.663c8.766,-6.146 13.212,-7.446 19.479,-7.446c7.012,0 7.571,1.025 3.629,5.346c-6.146,6.721 -11.408,13.158 -18.196,21.492c-5.608,6.912 -9.529,13.004 -11.612,16.458c-2.034,3.613 -2.309,5.921 -1.042,7.275c1.733,1.392 4.738,0.663 8.054,-0.921c3.367,-1.733 9.079,-5.416 14.688,-10.104c7.154,-5.796 10.121,-8.383 15.537,-13.437c2.971,-2.671 4.309,-4.009 5.313,-2.934c0.954,0.921 -2.638,4.392 -3.75,5.329c-3.975,3.959 -12.325,11.338 -18.888,16.667c-6.858,5.4 -18.212,13.854 -29.271,13.854c-7.154,0 -10.158,-3.4 -10.158,-8.816c0,-4.238 2.379,-8.646 5.125,-12.692c6.629,-10.383 19.65,-24.079 25.067,-28.7c-2.379,0.921 -9.375,5.992 -14.392,9.933" style="fill:#fff;fill-rule:nonzero;"/><path d="M2888.69,617.575c8.191,-5.713 13.245,-12.742 13.766,-17.379c0.209,-3.038 -1.058,-4.738 -4.012,-4.738c-3.192,0 -8.159,3.296 -14.946,9.705c-5.242,5.049 -13.575,15.795 -17.658,22.445c6.72,-1.733 15.8,-5.329 22.85,-10.033m11.25,16.754c6.37,-4.429 14.079,-10.417 20.537,-16.112c1.909,-1.65 3.004,-2.013 3.679,-1.284c0.625,1.005 -0.675,2.742 -2.795,4.321c-4.305,4.063 -15.05,12.709 -21.092,16.825c-13.992,9.304 -26.425,13.629 -37.725,13.629c-12.329,0 -18.108,-4.758 -17.883,-13.333c0.487,-6.704 3.366,-12.779 10.158,-20.8l-0.334,-0.346c-1.004,0.988 -4.633,4.392 -6.716,6.042c-1.738,1.3 -2.621,1.683 -3.334,1.058c-0.658,-1.058 0.713,-2.362 1.925,-3.717c4.359,-4.045 7.33,-6.404 12.467,-10c3.717,-2.758 10,-6.666 16.442,-10.104c9.633,-5.05 19.687,-9.254 28.821,-9.254l0.362,0c7.275,0 10.054,4.6 9.567,8.942c-0.554,8.662 -11.354,15.346 -21.409,20.416c-9.666,4.705 -21.179,8.646 -28.887,10.696c-1.179,2.654 -1.925,5.659 -1.925,7.709c0,5.033 2.725,7.812 7.758,7.812c4.288,0 15.68,-2.483 30.384,-12.5" style="fill:#fff;fill-rule:nonzero;"/><path d="M1935.15,25.517c10.017,-15.659 3.071,-25.538 -9.462,-24.238l-0.85,0.208c-18.371,1.896 -32.467,7.275 -36.546,22.38c-3.525,13.058 -1.025,27.329 4.566,32.516c9.496,-1.075 32.375,-14.216 42.292,-30.866" style="fill:#fff;fill-rule:nonzero;"/><path d="M2214.07,246.988c-22.642,36.008 -47.242,50.645 -65.505,50.087l-0.97,0c-17.467,-0.608 -28.788,-9.671 -27.329,-25.121c1.475,-13.508 14.429,-23.662 23.35,-28.279c12.729,-6.354 19.687,-13.837 22.016,-22.521c1.042,-3.871 0.296,-8.662 0.296,-8.662c8.8,-4.529 35.313,-19.184 49.271,-28.317c15.708,-10.104 37.654,-25.867 47.462,-35.225l0,1.025c-11.108,12.188 -30.345,69.6 -48.591,97.013m144.32,-37.792c-2.9,-2.954 -7.795,1.733 -12.708,5.483c-16.892,13.854 -37.775,30.575 -65.417,46.096c-15.762,9.167 -31.441,16.371 -43.212,19.896c11.808,-7.363 26.042,-25.313 32.137,-38.579c12.588,-26.7 11.58,-51.942 11.388,-79.009c0.367,-10.608 -0.313,-18.387 7.604,-25.866c5.142,-4.638 14.704,-8.163 23.788,-13.734c12.829,-7.362 27.725,-19.391 5.433,-20.191c-6.771,-0.159 -16.496,1.425 -28.35,9.808c-6.946,4.55 -11.963,10.158 -16.025,15.954c-22.829,18.525 -40.713,32.538 -58.663,44.413c-14.654,10.171 -35.454,22.083 -52.12,31.179c-1.875,-2.971 -9.442,-6.129 -15.313,-6.267c-19.233,-0.746 -37.254,15.154 -45.554,34.254c-8.871,6.509 -20.713,12.863 -33.596,19.13c-15.779,8.212 -39.287,18.091 -50.9,21.633c11.821,-7.363 30.833,-28.004 41.163,-47.05c13.421,-25.658 24.566,-67.879 24.304,-94.929c0.4,-10.679 -0.275,-18.471 7.642,-25.954c5.104,-4.621 14.912,-8.246 23.712,-13.646c12.725,-7.379 27.658,-19.413 5.538,-20.279c-6.805,-0.138 -17.55,1.441 -28.35,9.808c-5,3.683 -13.088,12.1 -16.075,15.871c-30.938,30.016 -57.709,53.262 -80.592,68.958c-14.858,10.121 -29.463,18.35 -41.442,25.708c-3.021,1.859 -6.979,5.609 -5.083,8.492c1.958,3.038 5.658,1.163 10.571,-1.579c8.975,-4.463 25.745,-14.567 38.733,-23.804c23.646,-16.579 47.5,-37.084 67.621,-57.775l-0,0.916c-16.217,16.963 -43.925,97.259 -78.125,135.871c-24.133,27.254 -39.879,36.404 -59.254,35.692c-17.325,-0.588 -28.559,-9.6 -27.171,-25.104c1.287,-13.488 15.296,-23.646 23.179,-28.209c12.829,-7.291 19.879,-14.862 22.083,-23.437c2.325,-9.604 -3.262,-20.504 -16.737,-20.854c-9.634,-0.363 -19.392,3.316 -27.9,9.533c-2.604,0.85 -5.779,4.513 -11.059,10.467c-0.066,0.246 -0.362,0.4 -0.587,0.541c-13.579,15.9 -21.375,24.546 -39.688,43.021c-14.879,15.209 -30.02,27.479 -39.166,33.454c-9.117,5.78 -17.554,8.525 -22.813,5.259c-4.166,-3.367 -3.995,-10.313 0.642,-21.404c4.671,-10.246 14.337,-28.871 28.504,-50.784c16.617,-26.091 30.021,-46.041 45.209,-67.1c10.279,-13.767 7.9,-16.458 -12.271,-14.271c-18.092,1.996 -30.35,7.188 -53.459,27.259c-17.983,15.016 -42.5,39.983 -55.85,54.112c0,-0.587 0.434,-1.458 0,-1.875c-3.191,-2.516 -8.558,3.734 -12.829,8.092c-10.554,10.8 -25.312,27.846 -41.216,43.054c-14.251,14.063 -29.426,26.321 -40.396,33.404c-7.242,4.617 -17.571,8.509 -23.684,6.267c-8.037,-3.092 -6.491,-16.875 -1.858,-27.988c13.892,-35.416 41.529,-87.791 58.404,-112.916c21.946,-3.142 37.308,-4.809 58.525,-6.909c7.725,-0.866 16.508,-0.729 16.738,-6.562c0.483,-4.913 -6.321,-5.121 -13.855,-4.425c-15.487,1.596 -32.779,3.35 -54.879,6.667c16.771,-27.138 31.909,-49.984 51.546,-77.188c19.513,-27.362 41.563,-56.771 52.063,-68.629c-1.334,-2.796 -5.33,-5.246 -15.034,-4.254c-20.071,2.1 -40.866,26.562 -56.371,45.608c-20.104,23.421 -54.095,69.688 -80.241,109.358c-3.875,0.292 -14.309,1.438 -26.792,3.592c-15.312,2.604 -24.825,4.55 -25.329,8.542c-0.504,4.895 4.183,4.304 10.937,3.662c11.634,-1.146 22.138,-3.246 34.688,-4.546c-16.613,18.175 -40.275,44.009 -63.8,69.704c-6.217,6.546 -7.725,10.521 -5.642,12.255c2.15,1.704 5.017,0.504 11.042,-5.988c10.483,-11.754 20.867,-23.508 34.979,-37.571c-24.062,39.375 -42.758,76.321 -42.187,100.538c0.591,14.446 9.566,26.271 31.687,23.958c36.542,-3.75 68.542,-33.175 84.408,-48.471c13.838,-12.987 31.13,-31.458 43.142,-45.016c0.104,0.433 0.104,1.008 0.504,1.3c3.213,1.495 6.771,-1.75 13.696,-9.321c8.579,-9.671 18.333,-19.55 31.354,-32.604c13.354,-13.055 31.929,-29.655 38.179,-33.317c-13.925,15.121 -47.033,58.646 -63.037,90.537c-6.425,12.413 -11.788,25.521 -10.433,38.075c1.645,15.363 11.437,24.096 31.645,21.788c31.617,-3.438 61.65,-31.008 79.238,-48.454c10.208,-10.054 21.475,-22.242 31.492,-33.196c-0,0.137 -0.067,0.296 -0.067,0.296c-4.758,26.962 4.775,58.279 55,59.929l0.954,-0c29.029,0.937 64.271,-7.5 81.754,-14.704c18.646,-7.154 35.225,-14.375 58.904,-26.129c8.909,-4.53 16.771,-9.009 24.638,-13.63c-6.892,31.688 5.729,60.175 55.05,61.738c28.925,1.025 64.062,-7.483 81.754,-14.704c18.525,-7.084 40.071,-17.013 61.804,-30.8c21.771,-13.784 40.729,-28.646 50.679,-36.996c8.821,-7.446 12.95,-13.158 11.075,-15.154" style="fill:#fff;fill-rule:nonzero;"/><path d="M3039.92,191.938c15.558,-10.155 13.283,-22.063 1.371,-25.971l-0.9,-0.346c-17.434,-5.713 -32.413,-6.617 -42.467,5.346c-8.488,10.383 -12.117,24.512 -9.463,31.579c9.238,3.021 35.592,0.417 51.459,-10.608" style="fill:#fff;fill-rule:nonzero;"/><path d="M2457.66,197.638c21.179,-16.305 36.787,-24.221 45.345,-23.371c8.542,1.025 11.896,6.216 10.125,14.725c-2.433,13.279 -18.941,32.029 -44.812,45.729c-21.7,11.317 -48.646,19.129 -68.417,21.787c13.488,-17.954 40.971,-46.079 57.759,-58.87m578.733,154.025c25.137,-8.784 42.396,-11.596 50.296,-7.984c8.037,3.592 9.462,9.513 5.016,17.013c-6.512,11.979 -28.179,24.512 -56.841,29.6c-24.046,3.87 -52.188,2.846 -71.821,-0.696c18.541,-12.917 53.366,-31.058 73.35,-37.933m81.371,78.195c-23.455,7.363 -51.025,14.08 -72.884,17.95c-50.708,8.892 -83.383,1.546 -94.929,-3.646c-13.141,-5.92 -17.012,-16.179 -10.954,-29.358c2.342,-5.275 7.588,-12.412 14.425,-17.896c22.642,3.888 57.396,6.838 88.492,6.042c32.291,-1.304 68.558,-6.2 80.625,-28.267c5.97,-11.108 4.479,-26.562 -14.825,-35.346l-0.834,-0.45c-23.804,-10.662 -55.4,-11.166 -86.875,-9.516c-20.816,1.25 -42.312,4.204 -55.191,6.946c-10.955,2.291 -19.255,4.32 -27.763,6.612c1.163,-1.146 1.754,-2.292 1.338,-3.296c-1.946,-3.612 -6.821,-1.162 -17.5,3.454c-19.113,8.942 -30.017,13.542 -54.342,22.796c-19.825,7.796 -38.817,12.709 -49.408,14.288c-10.675,1.508 -19.634,0.712 -23.071,-4.479c-2.396,-4.896 0.537,-11.042 9.529,-19.325c8.646,-7.375 24.95,-20.346 46.858,-34.355c25.971,-17.016 46.442,-29.566 69.063,-42.554c14.946,-8.212 13.925,-11.7 -5.279,-18.037c-17.517,-5.625 -30.763,-5.921 -59.859,2.741c-24.271,6.65 -60.696,20.85 -77.275,27.85c2.325,-2.016 3.817,-3.82 2.671,-5.4c-1.371,-2.329 -7.687,-0.745 -15.833,4.392c-14.929,8.663 -28.088,15.571 -52.584,27.067c-17.85,8.904 -37.066,15.504 -48.683,18.887c-11.683,3.367 -18.454,2.813 -21.525,-0.8c-3.25,-3.679 -1.842,-10.241 4.842,-17.741c6.737,-8.367 21.683,-21.946 41.908,-37.309c26.217,-19.966 53.25,-34.775 56.079,-46.946l0.121,-1.025c3.717,-17.012 -23.492,-24.025 -49.637,-30.866c-12.063,-3.542 -13.471,-10.763 1.737,-21.284c6.979,-4.391 11.321,-6.425 19.013,-9.758c0.208,-5.833 -7.38,-11.387 -14.967,-13.196c-15.158,-3.229 -29.775,0.384 -39.358,8.25c-12.013,9.217 -14.063,22.567 -6.717,30.05c-9.396,6.946 -24.446,16.459 -40.4,25.834c-20.329,12.258 -30.625,17.97 -44.133,25.833c0.937,-1.508 1.32,-3.038 0.695,-4.2c-1.633,-2.154 -4.687,-1.496 -10.904,2.692c-20.137,14.354 -43.991,29.287 -63.612,39.825c-45.484,24.304 -78.938,27.483 -91.334,26.112c-14.429,-1.512 -21.27,-10.021 -19.67,-24.462c0.658,-5.767 3.525,-14.221 8.108,-21.425c22.687,-3.405 56.667,-11.492 85.917,-21.946c30.454,-11.317 63.266,-27.167 67.916,-52.013c2.275,-12.396 -3.937,-26.596 -25.137,-28.854l-0.938,-0.137c-25.971,-2.813 -56.162,6.491 -85.591,18.037c-19.271,7.588 -38.817,17.154 -50.121,23.75c-15.521,8.904 -24.896,14.842 -38.696,25.017c-4.238,3.333 -8.492,6.787 -6.913,9.95c1.617,2.1 4.83,1.458 9.917,-1.859c6.317,-4.204 17.896,-12.691 21.108,-15.295l0.905,1.145c-21.771,20.905 -32.259,37.363 -35.28,56.425c-3.75,24.896 11.288,40.105 46.859,43.921c32.637,3.542 69.429,-5.121 112.675,-27.621c16.612,-8.662 44.337,-26.562 60.171,-37.516c-0.155,0.433 -0.242,0.85 -0,1.216c1.529,2.375 5.695,1.3 15.854,-4.412c12.566,-7.046 26.179,-15 45.45,-26.525c18.229,-10.817 34.446,-21.129 43.871,-27.917c4.391,2.95 11.908,4.529 21.233,6.7c23.733,5.192 42.258,6.354 36.196,15.884c-4.338,5.991 -45.938,23.508 -73.471,40.175c-24.983,15.225 -54.496,36.491 -59.967,56.995c-4.112,13.996 3.979,26.617 23.771,31.08c31.229,6.941 69.2,-8.509 92.342,-19.167c23.141,-10.696 42.396,-21.146 56.2,-29.013c-0,0.296 -0.125,0.575 -0,0.867c2.15,2.746 6.75,1.304 16.3,-2.758c11.804,-5.263 24.566,-10.088 42.033,-16.667c17.396,-6.546 41.213,-13.908 48.488,-14.55c-18.784,8.004 -67.05,33.908 -94.825,56.267c-10.975,8.596 -21.371,18.404 -25.209,30.366c-4.933,14.705 0.379,26.563 19.738,32.9c30.191,10.105 68.925,-2.658 92.171,-11.337c18.283,-6.771 40.487,-16.075 56.216,-23.283c1.546,1.145 3.975,1.512 8.525,0.366c7.342,-2.1 20.867,-6.562 24.704,-8.021l0.588,1.3c-27.15,13.109 -42.358,25.521 -51.042,42.692c-11.404,22.517 -1.941,41.65 30.663,56.354c29.879,13.509 67.671,16.809 115.779,8.871c20.679,-3.454 59.204,-13.625 75.504,-18.975c7.346,-2.012 12.779,-4.842 12.275,-8.296c-0.992,-2.587 -4.062,-2.866 -11.337,-0.8" style="fill:#fff;fill-rule:nonzero;"/><path d="M1183.55,364.804c-12.829,34.134 -23.437,48.696 -41.612,55.346c-16.321,5.975 -30.313,1.704 -34.621,-13.158c-3.559,-12.971 5.487,-27.709 11.096,-34.896c9.095,-11.563 12.691,-21.075 11.683,-29.863c-1.075,-7.012 -6.146,-12.708 -13.35,-14.008c12.275,-24.013 25.158,-47.1 37.692,-64.063c5.191,-7.066 13.612,-11.408 17.883,-12.62c31.458,-9.292 26.25,73.141 11.229,113.262m104.463,-89.825c-3.75,-1.512 -7.638,6.333 -10.434,12.688c-4.633,10.975 -38.35,59.758 -58.821,83.821c9.084,-10.659 17.884,-37.571 20.888,-58.992c6.529,-49.133 -13.179,-98.404 -57.1,-84.1c-32.346,10.662 -62.538,51.496 -93.317,113.387c-6.2,7.292 -10.608,16.596 -12.658,26.684c-15.867,34.496 -31.979,74.183 -48.625,117.971c28.454,-101.93 60.762,-241.321 79.079,-291.6c8.575,-23.959 11.388,-30.796 -8.454,-22.725c-12.467,5.191 -21.288,19.254 -27.45,32.241c-18.246,39.042 -39.913,85.554 -50.592,107.775c-10.312,23.092 -25.083,55.488 -37.462,81.392c-5.504,11.771 -9.271,20.554 -5.384,22.221c3.663,1.508 6.425,-4.846 10.867,-13.942c9.046,-18.454 31.233,-63.333 55.75,-118.279c-33.229,110.067 -55.487,209.617 -83.317,308.887c-6.825,24.392 -11.37,30.817 8.384,22.725c12.5,-5.279 28.683,-19.112 34.791,-32.187c16.738,-35.121 58.509,-139.425 75.938,-178.696c8.717,21.667 29.533,37.967 69.671,23.383l0.954,-0.362c27.225,-9.967 57.05,-30.592 70.367,-44.221c33.47,-34.321 59.945,-80.137 64.583,-93.487c1.337,-3.838 6.092,-12.988 2.342,-14.584" style="fill:#fff;fill-rule:nonzero;"/><path d="M1405.86,312.629c-20.17,29.304 -51.3,58.021 -69.216,62.117c-6.634,1.442 -12.05,-0.208 -14.55,-6.7c-4.513,-11.754 5.971,-39.967 36.058,-86.288c26.408,-41.612 54.688,-74.737 73.454,-78.991c10.313,-2.38 19.029,0.658 20.767,13.125c2.533,15.366 -22.363,63.47 -46.513,96.737m162.292,-80.071c-3.525,-2.221 -7.133,3.471 -11.717,9.534c-8.212,11.77 -20.454,28.262 -36.65,48.833c-12.325,15.662 -27.429,31.962 -35.8,38.75c-6.612,5.487 -15.329,11.408 -20.954,8.667c-4.304,-2.034 -6.129,-9.534 -1.946,-22.313c5.125,-16.958 13.7,-35.779 22.555,-53.592c14.391,-29.012 29.791,-57.291 38.854,-74.237c7.029,-13.367 3.925,-17.671 -15.625,-12.275c-15.138,3.404 -28.421,19.358 -45.659,47.971c1.925,-17.309 -8.387,-32.813 -27.9,-31.459c-25.366,1.755 -55.833,20.592 -88.387,47.709c-15.763,13.487 -29.496,27.412 -37.359,36.129c-8.091,8.733 -21.145,25.537 -23.3,29.008c-8.158,11.738 -11.683,18.475 -9.079,20.767c2.292,1.596 4.513,-0.992 7.604,-4.604c4.705,-6.075 7.775,-10.675 9.825,-14.063l1.338,0.646c-12.658,23.646 -16.875,40.396 -15.433,54.946c2.933,31.112 26.441,34.721 47.116,29.117c35.384,-9.984 71.842,-50.888 91.388,-78.021l1.008,0.746c-5.971,12.254 -8.646,26.666 -5.346,36.858c3.525,11.108 13.8,17.671 31.754,13.625c31.163,-6.925 57.167,-36.629 72.584,-55.9c14.654,-18.125 32.833,-43.075 42.675,-57.225c8.262,-11.683 11.858,-17.604 8.454,-19.617" style="fill:#fff;fill-rule:nonzero;"/><path d="M1389.17,145.129l50.087,22.342l7.117,-7.342l-61.388,-45.137l-46.529,60.291l8.717,5.125l41.996,-35.279Z" style="fill:#fff;fill-rule:nonzero;"/></g></svg>