<?xml version="1.0" encoding="UTF-8" standalone="no"?><!DOCTYPE svg PUBLIC "-//W3C//DTD SVG 1.1//EN" "http://www.w3.org/Graphics/SVG/1.1/DTD/svg11.dtd"><svg width="100%" height="100%" viewBox="0 0 984 371" version="1.1" xmlns="http://www.w3.org/2000/svg" xmlns:xlink="http://www.w3.org/1999/xlink" xml:space="preserve" xmlns:serif="http://www.serif.com/" style="fill-rule:evenodd;clip-rule:evenodd;stroke-linejoin:round;stroke-miterlimit:2;"><g><path d="M47.859,351.99c-9.596,0 -15.796,-6.387 -15.796,-19.183l0,-45.779c8.334,0.804 16.642,2.287 25.029,5.279c12.117,4.296 18.571,16.208 18.571,32.691c0,17.73 -12.075,26.992 -27.804,26.992m-6.658,-110.462c10.529,-0.9 18.108,3.258 18.108,19.304c0,13.491 -9.9,18.271 -19.375,18.3l-0.187,0.033c-2.475,-0.362 -5.009,-0.621 -7.684,-0.867l0,-29.57c0,-4.775 3.304,-6.68 9.138,-7.2m20.991,42.641c10.655,-3.166 17.475,-10.287 17.717,-24.354c0.3,-19.433 -11.867,-29.283 -38.708,-26.808c-13.659,1.216 -31.588,2.308 -40.096,3.254c-1.188,0.179 -1.017,5.092 0.596,4.971c6.362,-0.429 9.816,2.375 9.816,8.416l0,97.875c0,6.425 -2.329,8.225 -8.279,8.225c-1.591,0 -2.075,4.763 0,4.763l43.471,-0c31.204,-0 49.508,-9.096 49.508,-37.413c0,-23.066 -13.041,-32.8 -34.025,-38.929" style="fill:#315933;fill-rule:nonzero;"/><path d="M567.663,351.99c-9.6,0 -15.775,-6.387 -15.775,-19.183l0,-45.779c8.292,0.804 16.617,2.287 25,5.279c12.084,4.296 18.588,16.208 18.588,32.691c-0,17.73 -12.1,26.992 -27.813,26.992m-6.646,-110.462c10.517,-0.9 18.071,3.258 18.071,19.304c0,13.491 -9.875,18.271 -19.341,18.3l-0.167,0.033c-2.525,-0.362 -5.092,-0.621 -7.692,-0.867l0,-29.57c0,-4.775 3.275,-6.68 9.129,-7.2m20.963,42.641c10.65,-3.166 17.492,-10.287 17.746,-24.354c0.271,-19.433 -11.863,-29.283 -38.709,-26.808c-13.679,1.216 -31.637,2.308 -40.112,3.254c-1.246,0.179 -1.025,5.092 0.579,4.971c6.379,-0.429 9.817,2.375 9.817,8.416l-0,97.875c-0,6.425 -2.354,8.225 -8.259,8.225c-1.654,0 -2.062,4.763 0,4.763l43.438,-0c31.221,-0 49.546,-9.096 49.546,-37.413c-0,-23.066 -13.054,-32.8 -34.046,-38.929" style="fill:#315933;fill-rule:nonzero;"/><path d="M381.998,330.119c-0.633,3.017 -2.5,12.971 -3.446,16.188c-1.016,3.741 -4.85,4.854 -9.133,4.854l-13.808,-0c-9.917,-0 -13.8,-3.171 -13.8,-7.079l-0,-68.271c-0,-6.442 2.333,-8.279 8.262,-8.279c1.629,-0 2.059,-4.767 0,-4.767l-33.658,-0c-2.05,-0 -1.613,4.767 -0,4.767c5.946,-0 8.279,1.837 8.279,8.279l0,69.791c0,6.421 -2.333,8.221 -8.279,8.221c-1.613,0 -2.05,4.821 -0,4.821l51.492,0c6.737,0 7.662,3.825 6.558,9.633c-0.3,1.617 4.321,2.934 4.675,0.925c1.283,-6.541 6.071,-31.375 7.317,-38.029c0.404,-2.016 -4.113,-2.662 -4.459,-1.054" style="fill:#315933;fill-rule:nonzero;"/><path d="M459.407,339.49c-0.604,2.979 -0.729,3.6 -1.654,6.817c-1,3.741 -4.808,4.854 -9.125,4.854l-13.829,-0c-9.854,-0 -13.779,-3.167 -13.779,-7.083l-0,-31.721l19.995,-0c6.425,-0 9.188,0.466 9.188,6.391c-0,1.625 4.796,2.08 4.796,0l-0,-20.225c-0,-2.079 -4.796,-1.645 -4.796,0c-0,5.921 -2.763,6.371 -9.188,6.371l-19.995,0l-0,-26.416c-0,-6.442 2.333,-8.246 8.27,-8.246l15.33,-0c6.445,-0 10.12,1.383 10.12,7.308c0,1.625 4.792,2.075 4.792,0l0,-22.096c0,-2.091 -4.792,-1.641 -4.792,0c0,5.925 -3.675,7.325 -10.12,7.325l-48.971,0c-2.067,0 -1.65,4.763 -0,4.763c5.891,-0 8.233,1.837 8.233,8.279l0,69.792c0,6.42 -2.342,8.22 -8.233,8.22c-1.65,0 -2.067,4.817 -0,4.817l51.508,0c6.696,0 7.621,3.829 6.525,9.642c-0.329,1.612 4.317,2.929 4.7,0.921c1.238,-6.542 4.213,-22.042 5.475,-28.725c0.392,-2.009 -4.067,-2.63 -4.45,-0.988" style="fill:#315933;fill-rule:nonzero;"/><path d="M155.491,352.267c-11.842,-0 -19.959,-12.43 -19.959,-40.792c0,-28.429 8.117,-40.825 19.959,-40.825c11.904,-0 20.004,12.396 20.004,40.825c-0,28.362 -8.1,40.792 -20.004,40.792m-0,-90.621c-20.638,-0 -39.279,17.454 -39.279,49.829c-0,32.329 18.641,49.779 39.279,49.779c20.646,0 39.279,-17.45 39.279,-49.779c-0,-32.375 -18.633,-49.829 -39.279,-49.829" style="fill:#315933;fill-rule:nonzero;"/><path d="M296.348,262.769l-33.483,-0c-2.075,-0 -1.63,4.762 -0,4.762c5.937,0 8.245,1.838 8.245,8.279l0.025,0l0,45.846c0,21.921 -7.345,30.788 -17.695,30.788c-10.409,-0 -17.692,-8.867 -17.692,-30.788l-0,-45.846c-0,-6.441 2.333,-8.279 8.279,-8.279c1.613,0 2.038,-4.762 0,-4.762l-33.525,-0c-2.075,-0 -1.65,4.762 0,4.762c5.917,0 8.242,1.838 8.242,8.279l-0,45.846c-0,27.284 14.412,39.596 34.696,39.596c20.258,0 34.662,-12.312 34.662,-39.596l0,-45.846c0,-6.441 2.354,-8.279 8.246,-8.279c1.646,0 2.092,-4.762 -0,-4.762" style="fill:#315933;fill-rule:nonzero;"/><path d="M901.782,330.119c-0.629,3.017 -2.5,12.971 -3.425,16.188c-1.05,3.741 -4.85,4.854 -9.121,4.854l-13.841,-0c-9.875,-0 -13.784,-3.171 -13.784,-7.079l0,-68.271c0,-6.442 2.292,-8.279 8.254,-8.279c1.621,-0 2.05,-4.767 0,-4.767l-33.654,-0c-2.058,-0 -1.633,4.767 0,4.767c5.95,-0 8.246,1.837 8.246,8.279l0,69.791c0,6.421 -2.296,8.221 -8.246,8.221c-1.633,0 -2.058,4.821 0,4.821l51.513,0c6.704,0 7.679,3.825 6.516,9.633c-0.283,1.617 4.346,2.934 4.7,0.925c1.284,-6.541 6.013,-31.375 7.3,-38.029c0.375,-2.016 -4.07,-2.662 -4.458,-1.054" style="fill:#315933;fill-rule:nonzero;"/><path d="M979.227,339.49c-0.658,2.979 -0.737,3.6 -1.658,6.817c-1.033,3.741 -4.867,4.854 -9.121,4.854l-13.854,-0c-9.892,-0 -13.783,-3.167 -13.783,-7.083l-0,-31.721l19.979,-0c6.462,-0 9.204,0.466 9.204,6.391c0,1.625 4.792,2.08 4.792,0l-0,-20.225c-0,-2.079 -4.792,-1.645 -4.792,0c0,5.921 -2.742,6.371 -9.204,6.371l-19.979,0l-0,-26.416c-0,-6.442 2.325,-8.246 8.279,-8.246l15.292,-0c6.466,-0 10.145,1.383 10.145,7.308c0,1.625 4.771,2.075 4.771,0l0,-22.096c0,-2.091 -4.771,-1.641 -4.771,0c0,5.925 -3.679,7.325 -10.145,7.325l-48.967,0c-2.054,0 -1.613,4.763 -0,4.763c5.933,-0 8.258,1.837 8.258,8.279l0,69.792c0,6.42 -2.325,8.22 -8.258,8.22c-1.613,0 -2.054,4.817 -0,4.817l51.546,0c6.675,0 7.608,3.829 6.504,9.642c-0.292,1.612 4.317,2.929 4.712,0.921c1.238,-6.542 4.213,-22.042 5.467,-28.725c0.388,-2.009 -4.071,-2.63 -4.417,-0.988" style="fill:#315933;fill-rule:nonzero;"/><path d="M675.292,352.267c-11.866,-0 -20.012,-12.43 -20.012,-40.792c-0,-28.429 8.146,-40.825 20.012,-40.825c11.892,-0 19.959,12.396 19.959,40.825c-0,28.362 -8.067,40.792 -19.959,40.792m0,-90.621c-20.645,-0 -39.295,17.454 -39.295,49.829c-0,32.329 18.65,49.779 39.295,49.779c20.671,0 39.28,-17.45 39.28,-49.779c-0,-32.375 -18.609,-49.829 -39.28,-49.829" style="fill:#315933;fill-rule:nonzero;"/><path d="M816.166,262.769l-33.492,-0c-2.1,-0 -1.671,4.762 0,4.762c5.892,0 8.242,1.838 8.242,8.279l-0,45.846c-0,21.921 -7.313,30.788 -17.671,30.788c-10.412,-0 -17.717,-8.867 -17.717,-30.788l0,-45.846c0,-6.441 2.334,-8.279 8.259,-8.279c1.633,0 2.046,-4.762 -0,-4.762l-33.5,-0c-2.059,-0 -1.625,4.762 -0,4.762c5.933,0 8.25,1.838 8.25,8.279l-0,45.846c-0,27.284 14.421,39.596 34.708,39.596c20.258,0 34.663,-12.312 34.663,-39.596l-0,-45.846c-0,-6.441 2.3,-8.279 8.258,-8.279c1.617,0 2.075,-4.762 -0,-4.762" style="fill:#315933;fill-rule:nonzero;"/><path d="M310.225,129.02c7.729,-6.925 14.875,-13.108 15.187,-16.625c0.092,-1.054 -0.462,-1.537 -1.341,-1.537c-1.354,-0 -3.538,1.608 -5.238,3.2c-2.733,2.667 -6.496,6.512 -10.683,11.496c-5.875,6.996 -7.983,9.562 -12.283,15.341c7.62,-6.662 10.754,-8.587 14.358,-11.875m-14.625,24.825c1.371,-0.9 2.571,-1.937 3.7,-3.375c-0.925,0.484 -3.7,1.2 -4.95,1.542c-2.883,0.713 -4.608,1.425 -4.521,2.479c0.071,0.638 0.871,0.779 1.925,0.742c1.592,-0.171 2.821,-0.742 3.846,-1.388m5.412,-1.191c-3.32,2.475 -6.587,3.358 -9.258,3.446c-1.746,-0 -3.217,-0.242 -3.217,-1.609c0.071,-1.546 2.163,-2.254 5.23,-3.066c2.258,-0.559 4.754,-1.217 6.22,-1.838c0.759,-0.867 2.146,-2.908 2.521,-4.012c0.338,-0.905 0.575,-2.413 -0.775,-2.413c-1.471,0 -4.087,1.371 -6.979,3.6c-3.562,2.738 -5.904,5.075 -8.95,8.125c-0.621,0.658 -1.45,1.038 -2.342,1.125c-1.608,0.088 -1.545,-0.4 -1.1,-1.283c0.721,-1.592 1.913,-3.371 3.246,-5.384c0.767,-1.037 1.479,-2.079 2.354,-3.133l-0.075,0c-1.1,0.95 -2.133,1.921 -2.875,2.579c-0.495,0.396 -0.737,0.484 -0.9,0.313c-0.141,-0.154 0,-0.384 0.405,-0.796c1.287,-1.146 3.275,-2.979 5.17,-4.5c2.884,-3.708 6.071,-7.792 9.775,-12.05c4.567,-5.475 14.405,-15.517 18.667,-18.579c2.175,-1.613 4.488,-3.225 6.821,-3.225c2.058,-0 2.717,1.458 2.5,2.912c-0.65,3.859 -8.392,10.3 -16.488,17.034c-4.904,4.004 -11.662,8.85 -16.387,13.108c-1.379,1.662 -5.396,7.392 -5.396,7.392l0.1,0.07c2.313,-2.404 5.146,-4.583 7.513,-6.183c1.637,-1.054 4.745,-2.667 7.087,-2.35c1.779,0.171 2.742,1.225 2.492,3.063c-0.313,2.337 -2.138,5.208 -5.359,7.654" style="fill:#315933;fill-rule:nonzero;"/><path d="M308.793,148.948c-0.55,0.48 -0.925,0.638 -1.067,0.48c-0.125,-0.238 0.254,-0.634 0.588,-0.984c0.566,-0.554 1.671,-1.433 2.454,-1.991c1.079,-0.709 2.183,-1.455 3.883,-2.334c2.313,-1.212 4.809,-2.096 6.659,-2.183c0.57,-0 1.212,-0 1.212,0.325c0,0.158 -0.242,0.158 -0.875,0.504c-1.904,0.863 -3.517,2.233 -5.804,4.4c-2.313,2.338 -4.45,5.488 -4.646,7.079c-0.062,0.817 0.25,1.367 1.113,1.367c1.779,-0 4.995,-2.175 7.487,-4.879c0.071,-0.834 0.408,-2.009 1.458,-3.396c0.892,-1.208 2.013,-1.85 2.53,-2.096c0.287,-0.571 0.287,-1.433 0.287,-1.85c0,-0.867 -0.342,-1.129 -0.083,-1.283c0.337,-0.171 0.783,0.154 1.112,0.491c0.642,0.634 1.121,1.621 0.979,2.796c-0.266,1.942 -2.091,4.263 -4.591,6.513c0.329,0.175 1.229,0.104 1.521,-0c0.72,-0.138 1.612,-0.55 2.733,-1.367c1.058,-0.704 1.683,-1.267 2.562,-2.096c0.734,-0.621 1.134,-1.037 1.409,-0.779c0.187,0.225 -0.275,0.708 -1.075,1.438c-0.704,0.637 -1.517,1.366 -2.559,2.075c-1.308,0.904 -2.295,1.32 -3.07,1.475c-0.73,0.158 -1.7,0.158 -2.163,-0.155c-2.092,1.588 -5.858,3.913 -9.15,3.913c-2.496,-0 -4.008,-1.175 -3.971,-3.538c0.088,-1.587 1.067,-3.529 2.579,-5.141l-0.079,-0.067c-0.541,0.471 -0.9,0.779 -1.433,1.283" style="fill:#315933;fill-rule:nonzero;"/><path d="M331.61,146.607c-1.184,0.971 -2.075,1.7 -2.884,2.425c-0.65,0.554 -0.979,0.8 -1.204,0.625c-0.167,-0.159 0,-0.471 0.875,-1.284c0.879,-0.795 3.775,-3.216 5.717,-4.479c2.071,-1.475 3.15,-1.787 4.646,-1.787c1.708,-0 1.85,0.246 0.9,1.287c-1.063,1.138 -2.575,2.971 -4.188,4.979c-1.271,1.7 -2.571,3.463 -2.971,4.35c-0.329,0.642 -0.329,1.192 -0.079,1.434c0.3,0.337 1.042,0.246 1.85,-0.134c1.779,-0.97 3.525,-2.254 6.033,-4.191c3.867,-2.979 6.092,-4.988 8.646,-6.992c0.688,-0.487 1.142,-0.904 2.359,-0.904c1.375,-0 2.175,0.171 1.204,1.296c-1.45,1.766 -2.654,3.062 -4.284,5.141c-1.37,1.7 -2.395,3.138 -2.97,4.121c-0.467,0.788 -0.555,1.529 -0.25,1.75c0.408,0.329 1.05,0.159 1.85,-0.221c0.829,-0.416 2.37,-1.37 3.666,-2.425c1.559,-1.279 2.959,-2.491 3.821,-3.291c0.479,-0.484 0.988,-0.796 1.15,-0.571c0.238,0.158 -0.412,0.812 -0.671,1.054c-0.941,0.95 -2.971,2.633 -4.887,4.154c-1.459,1.142 -4.246,3.221 -6.896,3.221c-1.633,0 -2.504,-0.708 -2.504,-1.921c-0,-1.108 0.571,-2.233 1.275,-3.291c0.908,-1.296 2.412,-2.821 3.808,-4.192l-0.087,-0.079c-1.63,1.296 -4.346,3.466 -6.421,5.087c-3.329,2.475 -6.213,4.396 -8.625,4.396c-1.692,0 -2.742,-0.792 -2.646,-2.25c0.092,-1.104 0.796,-2.317 1.517,-3.287c1.608,-2.184 3.229,-4.084 5.712,-6.409c-0.587,0.225 -2.233,1.438 -3.462,2.388" style="fill:#315933;fill-rule:nonzero;"/><path d="M358.132,145.815c-1.2,1.033 -2.442,2.163 -3.305,2.979c-0.479,0.396 -0.7,0.479 -0.879,0.238c-0.062,-0.238 0.179,-0.484 0.4,-0.725c0.329,-0.329 3.4,-2.975 5.892,-5.075c2.075,-2.646 6.012,-7.525 9.467,-11.475c2.712,-3.225 6.025,-6.754 9.558,-9.975c0.954,-0.884 1.871,-1.384 2.887,-1.384c0.825,0 1.209,0.342 1.209,0.588c-1.513,1.521 -8.617,9.317 -11.975,13.329c-5.367,6.513 -11.146,13.992 -12.838,17.696c-0.266,0.55 -0.737,1.679 -0.158,2.146c0.525,0.416 1.762,-0.071 2.475,-0.467c1.042,-0.554 2.171,-1.367 3.267,-2.267c1.47,-1.108 2.512,-1.995 3.579,-2.979c0.275,-0.308 0.962,-0.866 1.2,-0.621c0.162,0.155 -0.088,0.484 -0.575,0.971c-0.984,0.946 -2.967,2.717 -4.917,4.15c-1.629,1.213 -4.55,3.225 -7.221,3.225c-1.608,0 -2.571,-0.712 -2.5,-2.146c0.096,-1.941 2.109,-5.075 4.488,-8.137l-0.054,-0.071Z" style="fill:#315933;fill-rule:nonzero;"/><path d="M374.19,147.823c-3.283,3.2 -4.654,5.317 -4.488,6.334c0.071,0.575 0.484,0.8 1.042,0.8c1.55,-0 4.583,-1.746 6.742,-3.775c2.591,-2.234 5.491,-5.696 5.554,-6.959c0.062,-1.058 -0.571,-1.458 -1.433,-1.458c-1.63,0 -4.55,2.183 -7.417,5.058m13.996,-5.883c1.675,-0.037 1.833,0.325 1.033,1.296c-1.033,1.208 -2.825,3.217 -4.471,5.312c-1.066,1.288 -2.116,2.634 -2.821,3.95c-0.562,0.938 -0.562,1.588 -0.258,1.838c0.417,0.312 1.213,-0 1.85,-0.313c0.821,-0.416 2.342,-1.458 3.596,-2.508c1.729,-1.367 2.975,-2.479 3.883,-3.296c0.463,-0.396 0.871,-0.808 1.129,-0.55c0.242,0.221 -0.158,0.638 -1.058,1.438c-1.05,0.971 -2.962,2.666 -4.496,3.841c-1.612,1.3 -4.246,3.221 -6.9,3.221c-1.546,0 -2.258,-0.712 -2.35,-1.679c-0.062,-0.883 0.4,-1.992 1.142,-2.892l-0.071,-0.083c-2.112,1.85 -5.804,4.5 -8.858,4.654c-1.792,0.104 -3.625,-0.621 -3.313,-3.221c0.167,-1.175 0.838,-2.479 2.304,-4.154l-0.095,-0.071c-0.259,0.225 -0.58,0.55 -1.08,0.934c-0.291,0.241 -0.533,0.421 -0.712,0.241c-0.15,-0.241 0.258,-0.708 1.104,-1.525c0.242,-0.237 1.629,-1.362 2.442,-1.92c0.783,-0.567 2.171,-1.45 3.675,-2.23c3.162,-1.625 5.975,-2.6 8.066,-2.283c1.592,0.275 2.155,1.692 1.675,3.063c1.93,-1.996 3.292,-3.063 4.584,-3.063" style="fill:#315933;fill-rule:nonzero;"/><path d="M405.216,154.085c0.071,-1.762 1.867,-3.77 3.375,-5.641c1.2,-1.434 2.429,-2.784 3.371,-3.909c0.321,-0.416 0.492,-0.908 0.083,-1.145c-0.404,-0.23 -1.283,0.104 -2.104,0.5c-1.441,0.708 -3.691,2.079 -6.246,4.087c-3.545,2.758 -5.466,4.588 -9.012,7.292c-0.746,0.587 -1.208,0.741 -2.092,0.741c-1.129,0 -1.691,-0.154 -1.041,-1.279c0.579,-1.041 2.237,-3.708 3.533,-5.387c0.883,-1.209 2.325,-3.05 3.225,-4.188c0.571,-0.712 0.712,-1.108 0.571,-1.35c-0.25,-0.312 -0.713,-0.179 -1.238,0.084c-0.946,0.47 -2.154,1.35 -3.108,2.166c-1.058,0.9 -2.333,2.009 -3.463,3.046c-0.812,0.733 -1.12,0.975 -1.37,0.733c-0.142,-0.25 0.25,-0.645 1.2,-1.529c0.97,-0.9 2.733,-2.562 4.183,-3.708c2.183,-1.692 3.796,-2.663 5.496,-2.663c1.512,0 1.991,0.9 1.991,1.767c0,0.967 -0.641,2.042 -1.7,3.463c-1.2,1.629 -2.891,3.791 -3.754,5.075l0.054,0.083c1.955,-1.588 4.6,-3.95 7.413,-6.029c2.812,-2.071 6.337,-4.359 8.771,-4.359c1.671,0 2.616,0.83 2.458,2.184c-0.242,1.454 -1.908,3.287 -3.2,4.912c-1.271,1.509 -2.275,2.879 -2.671,3.534c-0.629,1.041 -0.629,1.52 -0.308,1.77c0.4,0.313 1.287,0 1.921,-0.312c0.971,-0.488 2.112,-1.15 3.862,-2.508c1.384,-1.046 2.975,-2.484 3.859,-3.296c0.629,-0.554 0.895,-0.642 1.041,-0.488c0.175,0.159 -0.071,0.488 -0.641,1.063c-0.734,0.708 -3.125,2.875 -4.817,4.154c-1.583,1.208 -4.763,3.221 -7.238,3.221c-1.533,-0 -2.491,-0.713 -2.404,-2.084" style="fill:#315933;fill-rule:nonzero;"/><path d="M425.541,147.823c-3.288,3.2 -4.646,5.317 -4.504,6.334c0.087,0.575 0.479,0.8 1.05,0.8c1.541,-0 4.583,-1.746 6.729,-3.775c2.583,-2.234 5.466,-5.696 5.566,-6.959c0.08,-1.058 -0.545,-1.458 -1.433,-1.458c-1.621,0 -4.508,2.183 -7.408,5.058m-18.071,22.888c-6.733,4.5 -12.704,10.079 -13.008,14.237c-0.117,1.209 0.4,1.938 1.2,2.159c1.275,0.416 3.6,-0.396 5.075,-1.263c3.608,-2.183 8.333,-6.354 14.683,-14.475c3.212,-4.104 6.508,-8.446 8.108,-10.696c-4.746,3.134 -8.562,5.055 -16.058,10.038m25.779,-28.771c1.629,0.275 2.013,1.45 1.833,2.733l0.1,0c1.788,-2.008 2.655,-2.733 3.863,-2.733c1.533,0 1.933,0.325 1.042,1.296c-1.459,1.712 -2.58,3.217 -4.192,5.312c-1.346,1.767 -4.175,5.7 -6.546,8.9c1.729,-1.037 5.292,-3.2 7.692,-5.054c1.746,-1.371 3.296,-2.558 4.962,-4.087c0.4,-0.417 0.825,-0.571 0.975,-0.417c0.242,0.246 -0.433,0.833 -0.816,1.217c-1.184,1.104 -2.859,2.491 -4.73,3.946c-2.883,2.183 -6.245,4.262 -8.837,5.695c-3.471,5.059 -8.692,11.825 -10.996,14.388c-5.404,5.954 -11.829,11.012 -16.558,13.504c-2.075,1.092 -4.025,1.696 -5.554,1.696c-2.013,-0 -4.184,-0.654 -3.775,-3.388c0.641,-4.816 9.97,-11.57 16.237,-15.691c7.4,-4.742 10.754,-6.471 16.3,-9.934c1.433,-2.008 4.096,-5.633 5.358,-7.55l-0.025,-0.104c-2.191,1.867 -5.716,4.346 -8.687,4.5c-1.783,0.104 -3.538,-0.554 -3.296,-3.221c0.158,-1.175 0.792,-2.479 2.208,-4.154l-0.054,-0.071c-0.221,0.225 -0.571,0.55 -1.05,0.934c-0.312,0.241 -0.55,0.421 -0.704,0.241c-0.175,-0.241 0.392,-0.862 1.275,-1.679c0.258,-0.241 1.458,-1.208 2.242,-1.766c0.812,-0.567 2.112,-1.45 3.696,-2.23c2.891,-1.558 5.975,-2.6 8.037,-2.283" style="fill:#315933;fill-rule:nonzero;"/><path d="M451.448,148.218c1.975,-1.371 3.188,-3.058 3.292,-4.171c0.054,-0.729 -0.246,-1.137 -0.988,-1.137c-0.712,-0 -1.937,0.791 -3.55,2.329c-1.266,1.212 -3.295,3.791 -4.22,5.387c1.583,-0.416 3.75,-1.279 5.466,-2.408m2.688,4.021c1.55,-1.063 3.421,-2.5 4.933,-3.867c0.463,-0.396 0.721,-0.483 0.863,-0.308c0.162,0.241 -0.142,0.658 -0.65,1.037c-1.013,0.975 -3.596,3.05 -5.046,4.038c-3.4,2.233 -6.359,3.271 -9.075,3.271c-3.017,-0 -4.359,-1.142 -4.263,-3.2c0.063,-1.609 0.8,-3.067 2.396,-4.992l-0.071,-0.083c-0.241,0.237 -1.104,1.054 -1.612,1.45c-0.409,0.312 -0.65,0.404 -0.809,0.254c-0.145,-0.254 0.159,-0.567 0.496,-0.892c1.079,-0.971 1.792,-1.537 2.954,-2.4c0.909,-0.662 2.442,-1.6 3.971,-2.425c2.309,-1.212 4.721,-2.221 6.921,-2.221l0.025,0c1.779,0 2.421,1.104 2.388,2.146c-0.196,2.079 -2.763,3.683 -5.175,4.9c-2.321,1.129 -5.067,2.075 -6.917,2.567c-0.304,0.637 -0.471,1.358 -0.471,1.85c0,1.208 0.621,1.875 1.858,1.875c1.025,-0 3.775,-0.596 7.284,-3" style="fill:#315933;fill-rule:nonzero;"/><path d="M472.965,144.118c-0,1.038 -1.95,2.729 -3.721,4.829c-1.325,1.596 -2.317,2.963 -2.717,3.775c-0.4,0.713 -0.4,1.3 -0.07,1.521c0.295,0.246 0.862,0.159 1.729,-0.325c0.941,-0.483 2.366,-1.354 3.65,-2.404c1.733,-1.367 2.741,-2.171 3.791,-3.142c0.534,-0.55 1.034,-0.795 1.159,-0.641c0.246,0.246 -0.304,0.716 -0.929,1.375c-0.959,0.883 -2.588,2.316 -4.6,3.841c-1.684,1.296 -4.505,3.221 -7.15,3.221c-1.684,0 -2.546,-0.9 -2.467,-2.083c0.037,-1.763 2.075,-4.008 3.837,-5.713c1.959,-1.825 5.013,-4.012 5.2,-4.566c0.338,-0.9 -1.175,-0.642 -3.204,-0.642c-0.775,0 -1.425,0 -1.833,-0.158c-0.625,0.696 -1.783,1.837 -3.046,3.05c-1.379,1.279 -2.35,2.162 -3.225,2.975c-0.737,0.625 -1.029,0.804 -1.175,0.625c-0.196,-0.154 0.071,-0.55 0.846,-1.284c0.954,-0.862 1.692,-1.525 3.162,-2.887c1.105,-1.042 2.171,-2.096 2.813,-2.821c-0.767,-0.45 -0.821,-1.596 -0,-2.567c0.625,-0.791 1.737,-1.345 3.054,-1.345c0.642,-0 1.354,0.304 1.433,0.795c-0.57,0.396 -0.883,0.621 -1.362,1.142c-1.058,1.108 -0.821,1.663 0.242,1.729c2.233,0.109 4.583,0.179 4.583,1.629l-0,0.071Z" style="fill:#315933;fill-rule:nonzero;"/><path d="M493.502,131.268c1.07,0 1.55,0.884 0.591,2.079c-0.966,1.28 -2.979,2.167 -3.796,2.167c-0.391,-0.467 -0.483,-1.683 -0.054,-2.725c0.463,-1.208 1.659,-1.521 3.225,-1.521l0.034,0Zm-14.675,15.338c-1.234,0.971 -2.092,1.7 -2.909,2.425c-0.646,0.554 -0.941,0.804 -1.183,0.625c-0.179,-0.154 -0,-0.467 0.892,-1.284c0.837,-0.795 3.766,-3.216 5.687,-4.479c2.075,-1.475 3.1,-1.787 4.638,-1.787c1.7,-0 1.87,0.246 0.883,1.283c-1.433,1.613 -2.679,3.158 -4.317,5.158c-1.391,1.659 -2.333,3.121 -2.829,3.95c-0.467,0.867 -0.554,1.421 -0.225,1.746c0.404,0.334 1.104,0.159 1.896,-0.221c0.817,-0.416 2.187,-1.3 3.579,-2.425c1.654,-1.391 2.413,-2.012 3.675,-3.225c0.721,-0.641 1.05,-0.962 1.292,-0.704c0.258,0.221 -0.642,1.054 -0.892,1.279c-0.95,0.95 -2.971,2.721 -4.6,4c-1.567,1.296 -4.329,3.325 -6.946,3.325c-1.708,0 -2.421,-0.816 -2.421,-2.116c0,-1.017 0.58,-2.075 1.2,-3.046c1.588,-2.492 4.755,-5.779 6.009,-6.888c-0.534,0.221 -2.242,1.438 -3.429,2.384" style="fill:#315933;fill-rule:nonzero;"/><path d="M498.095,148.218c2.013,-1.371 3.213,-3.058 3.296,-4.171c0.088,-0.729 -0.241,-1.137 -0.975,-1.137c-0.716,-0 -1.912,0.791 -3.512,2.329c-1.3,1.212 -3.313,3.791 -4.279,5.387c1.625,-0.416 3.787,-1.279 5.47,-2.408m2.75,4.021c1.534,-1.063 3.367,-2.5 4.888,-3.867c0.483,-0.396 0.721,-0.483 0.892,-0.308c0.179,0.241 -0.171,0.658 -0.659,1.037c-1.05,0.975 -3.587,3.05 -5.037,4.038c-3.404,2.233 -6.359,3.271 -9.092,3.271c-2.983,-0 -4.371,-1.142 -4.283,-3.2c0.1,-1.609 0.837,-3.067 2.433,-4.992l-0.083,-0.083c-0.238,0.237 -1.104,1.054 -1.609,1.45c-0.383,0.312 -0.641,0.404 -0.829,0.254c-0.116,-0.254 0.188,-0.567 0.509,-0.892c1.041,-0.971 1.754,-1.537 3,-2.4c0.862,-0.662 2.366,-1.6 3.933,-2.425c2.317,-1.212 4.721,-2.221 6.892,-2.221l0.07,0c1.755,0 2.421,1.104 2.342,2.146c-0.171,2.079 -2.733,3.683 -5.154,4.9c-2.333,1.129 -5.063,2.075 -6.9,2.567c-0.321,0.637 -0.471,1.358 -0.471,1.85c0,1.208 0.621,1.875 1.817,1.875c1.066,-0 3.787,-0.596 7.341,-3" style="fill:#315933;fill-rule:nonzero;"/><path d="M510.73,154.244c-2.2,2.654 -5.388,4.9 -6.988,5.867c-0.75,0.421 -1,0.491 -1.083,0.421c-0.138,-0.242 0.183,-0.421 0.675,-0.971c0.958,-1.038 2.241,-2.429 2.954,-3.95c0.392,-0.725 -0.071,-1.117 0.167,-1.767c0.35,-1.033 2.02,-1.692 3.712,-1.692c0.725,0 1.183,0.171 1.183,0.721c0,0.334 -0.158,0.813 -0.62,1.371" style="fill:#315933;fill-rule:nonzero;"/><path d="M529.765,156.409c-2.984,-0 -4.442,-1.175 -4.292,-3.359c0.187,-1.629 1.071,-3.308 2.337,-4.833l-0.083,-0.083c-0.217,0.241 -0.867,0.812 -1.362,1.212c-0.43,0.396 -0.892,0.642 -1.042,0.488c-0.15,-0.25 0.15,-0.559 0.504,-0.888c1.033,-0.966 1.754,-1.537 2.967,-2.4c0.896,-0.658 2.479,-1.704 3.85,-2.429c2.729,-1.454 5.3,-2.496 7.404,-2.179c1.867,0.325 2.504,1.558 2.175,3.062c-0.308,1.546 -1.713,2.734 -2.746,2.734c-1.354,-0 -1.354,-1.125 -0.612,-2.338c0.854,-1.504 1.183,-2.487 0.191,-2.629c-0.866,-0.171 -2.696,1.042 -4.975,3.358c-2.154,2.184 -4.237,5.234 -4.487,7.155c-0.175,1.212 0.571,1.845 1.833,1.845c1.05,0 3.854,-0.479 7.438,-2.887c1.512,-1.058 3.479,-2.738 4.795,-3.863c0.48,-0.395 0.73,-0.487 0.875,-0.308c0.167,0.242 -0.145,0.55 -0.625,1.038c-1.05,0.97 -3.295,2.908 -4.779,3.841c-2.771,1.942 -6.554,3.463 -9.287,3.463l-0.079,-0Z" style="fill:#315933;fill-rule:nonzero;"/><path d="M544.071,148.948c-0.575,0.48 -0.896,0.638 -1.071,0.48c-0.15,-0.238 0.259,-0.634 0.563,-0.984c0.579,-0.554 1.662,-1.433 2.504,-1.991c1.054,-0.709 2.163,-1.455 3.85,-2.334c2.363,-1.212 4.833,-2.096 6.663,-2.183c0.55,-0 1.212,-0 1.212,0.325c0,0.158 -0.229,0.158 -0.892,0.504c-1.912,0.863 -3.52,2.233 -5.775,4.4c-2.316,2.338 -4.512,5.488 -4.641,7.079c-0.079,0.817 0.229,1.367 1.104,1.367c1.783,-0 5.012,-2.175 7.504,-4.879c0.033,-0.834 0.396,-2.009 1.438,-3.396c0.862,-1.208 2,-1.85 2.566,-2.096c0.213,-0.571 0.213,-1.433 0.213,-1.85c-0,-0.867 -0.3,-1.129 -0.067,-1.283c0.338,-0.171 0.8,0.154 1.108,0.491c0.667,0.634 1.163,1.621 0.975,2.796c-0.241,1.942 -2.083,4.263 -4.583,6.513c0.346,0.175 1.208,0.104 1.525,-0c0.742,-0.138 1.617,-0.55 2.75,-1.367c1.033,-0.704 1.679,-1.267 2.567,-2.096c0.716,-0.621 1.129,-1.037 1.371,-0.779c0.245,0.225 -0.242,0.708 -1.05,1.438c-0.709,0.637 -1.517,1.366 -2.58,2.075c-1.283,0.904 -2.229,1.32 -3.058,1.475c-0.704,0.158 -1.687,0.158 -2.142,-0.155c-2.091,1.588 -5.862,3.913 -9.175,3.913c-2.504,-0 -4.008,-1.175 -3.95,-3.538c0.092,-1.587 1.071,-3.529 2.58,-5.141l-0.067,-0.067c-0.558,0.471 -0.908,0.779 -1.442,1.283" style="fill:#315933;fill-rule:nonzero;"/><path d="M578.015,154.085c0.117,-1.762 1.879,-3.77 3.429,-5.641c1.171,-1.434 2.421,-2.784 3.363,-3.909c0.32,-0.416 0.483,-0.908 0.1,-1.145c-0.421,-0.23 -1.317,0.104 -2.113,0.5c-1.442,0.708 -3.7,2.079 -6.283,4.087c-3.534,2.758 -5.45,4.588 -9.009,7.292c-0.704,0.587 -1.195,0.741 -2.07,0.741c-1.125,0 -1.688,-0.154 -1.063,-1.279c0.588,-1.041 2.271,-3.708 3.542,-5.387c0.908,-1.209 2.333,-3.05 3.196,-4.188c0.595,-0.712 0.758,-1.108 0.595,-1.35c-0.229,-0.312 -0.737,-0.179 -1.2,0.084c-0.987,0.47 -2.183,1.35 -3.166,2.166c-1.029,0.9 -2.308,2.009 -3.429,3.046c-0.805,0.733 -1.134,0.975 -1.338,0.733c-0.179,-0.25 0.204,-0.645 1.175,-1.529c0.971,-0.9 2.717,-2.562 4.167,-3.708c2.204,-1.692 3.791,-2.663 5.466,-2.663c1.55,0 2.021,0.9 2.021,1.767c0,0.967 -0.641,2.042 -1.683,3.463c-1.192,1.629 -2.892,3.791 -3.792,5.075l0.096,0.083c1.933,-1.588 4.588,-3.95 7.396,-6.029c2.783,-2.071 6.342,-4.359 8.754,-4.359c1.671,0 2.629,0.83 2.504,2.184c-0.266,1.454 -1.916,3.287 -3.233,4.912c-1.317,1.509 -2.242,2.879 -2.646,3.534c-0.637,1.041 -0.637,1.52 -0.308,1.77c0.362,0.313 1.271,0 1.912,-0.312c0.971,-0.488 2.075,-1.15 3.863,-2.508c1.375,-1.046 2.958,-2.484 3.846,-3.296c0.641,-0.554 0.916,-0.642 1.033,-0.488c0.154,0.159 -0.092,0.488 -0.629,1.063c-0.713,0.708 -3.163,2.875 -4.817,4.154c-1.608,1.208 -4.737,3.221 -7.258,3.221c-1.504,-0 -2.446,-0.713 -2.421,-2.084" style="fill:#315933;fill-rule:nonzero;"/><path d="M617.899,128.915c7.742,-6.892 14.896,-13.088 15.192,-16.617c0.075,-0.958 -0.404,-1.438 -1.296,-1.438c-1.283,0 -3.217,1.605 -4.967,3.2c-2.633,2.492 -6.291,6.442 -10.45,11.43c-5.921,6.954 -7.941,9.625 -12.287,15.341c7.55,-6.596 10.212,-8.675 13.808,-11.916m-36.65,42.937c-2.629,4.004 -6.404,9.804 -7.712,12.783c-0.467,1.034 -0.392,1.659 -0,1.917c0.462,0.242 1.066,0 2.012,-0.704c2.092,-1.613 5.413,-5.717 8.775,-11.571c3.038,-5.225 6.038,-13.121 7.084,-16.567c-5.18,6.592 -5.717,7.55 -10.159,14.142m51.546,-61.896c1.825,0 2.446,1.384 2.213,2.913c-0.613,3.858 -8.325,10.196 -16.463,16.966c-4.804,3.996 -11.146,8.83 -15.912,13.075c-4.167,5.159 -6.538,8.375 -9.5,12.463c0.829,-0.138 2.358,-0.642 3.5,-1.125c1.104,-0.463 2.725,-1.196 4.475,-2.338c1.804,-1.108 3.616,-2.637 4.562,-3.537c0.358,-0.304 1.063,-0.963 1.304,-0.704c0.225,0.221 -0.462,0.879 -0.75,1.125c-1.1,1.104 -3.171,2.804 -5.208,4.083c-2.254,1.371 -4.821,2.392 -6.354,2.979c-0.863,0.313 -1.609,0.725 -2.004,1.279c-0.55,0.838 -0.713,1.284 -1.109,2.567c-1.312,4.192 -3.962,10.458 -6.741,15.283c-2.588,4.505 -6.113,9.471 -9.342,11.9c-1.2,0.95 -2.396,1.45 -3.446,1.28c-1.075,-0.175 -1.704,-1.142 -1.296,-3.063c0.909,-4.312 6.288,-13.658 11.967,-21.454c4.112,-5.646 9.417,-12.538 14.171,-18.563l-0.117,-0.083c-0.937,0.742 -2.783,2.408 -4.242,3.792c-0.466,0.396 -0.708,0.479 -0.879,0.312c-0.162,-0.158 0,-0.383 0.484,-0.887c1.929,-1.85 4.754,-4.171 6.508,-5.554c3.612,-4.505 6.579,-8.192 8.921,-11.013c6.204,-7.204 14.512,-15.583 18.545,-18.562c1.996,-1.438 4.351,-3.134 6.605,-3.134l0.108,0Z" style="fill:#315933;fill-rule:nonzero;"/><path d="M623.596,131.268c1.041,0 1.521,0.884 0.596,2.079c-0.971,1.28 -2.992,2.167 -3.792,2.167c-0.408,-0.467 -0.492,-1.683 -0.063,-2.725c0.455,-1.208 1.646,-1.521 3.196,-1.521l0.063,0Zm-14.709,15.338c-1.2,0.971 -2.062,1.7 -2.854,2.425c-0.687,0.554 -0.962,0.804 -1.229,0.625c-0.179,-0.154 0,-0.467 0.871,-1.284c0.9,-0.795 3.813,-3.216 5.708,-4.479c2.109,-1.475 3.159,-1.787 4.646,-1.787c1.717,-0 1.871,0.246 0.909,1.283c-1.45,1.613 -2.717,3.158 -4.325,5.158c-1.375,1.659 -2.334,3.121 -2.809,3.95c-0.512,0.867 -0.596,1.421 -0.246,1.746c0.363,0.334 1.109,0.159 1.921,-0.221c0.784,-0.416 2.163,-1.3 3.517,-2.425c1.721,-1.391 2.421,-2.012 3.729,-3.225c0.704,-0.641 1.025,-0.962 1.267,-0.704c0.25,0.221 -0.634,1.054 -0.867,1.279c-0.988,0.95 -2.979,2.721 -4.583,4c-1.655,1.296 -4.346,3.325 -7.005,3.325c-1.683,0 -2.412,-0.816 -2.412,-2.116c-0,-1.017 0.55,-2.075 1.196,-3.046c1.616,-2.492 4.758,-5.779 6.029,-6.888c-0.558,0.221 -2.242,1.438 -3.463,2.384" style="fill:#315933;fill-rule:nonzero;"/><path d="M631.982,152.238c2.217,-1.371 3.908,-2.808 5.271,-4.021c0.4,-0.329 0.783,-0.708 1.054,-0.483c0.171,0.154 -0.171,0.641 -0.896,1.3c-0.791,0.708 -2.287,1.987 -4.058,3.204c-1.804,1.196 -3.571,2.096 -5.092,2.721c-1.433,0.654 -4.325,1.45 -6.758,1.45c-4.246,-0 -5.125,-2.567 -4.788,-4.813c0.3,-2.321 2.134,-4.258 4.075,-4.187c1.113,0.1 1.684,0.9 1.534,1.779c-0.142,0.8 -0.734,1.437 -1.792,1.992c-0.737,0.416 -1.754,1.316 -1.804,2.425c-0.108,1.279 0.842,2.008 2.312,2.008c1.605,-0 3.596,-1.279 5.396,-4.329c1.442,-2.338 2.892,-7.167 3.759,-8.204l-0,-0.075c-0.788,0.804 -2.496,2.079 -3.85,3.05c-1.155,0.791 -2.409,1.612 -3.055,1.925c-0.325,0.154 -0.645,0.329 -0.816,0.087c-0.046,-0.246 -0,-0.4 0.416,-0.658c0.784,-0.454 2.067,-1.284 3.375,-2.254c1.434,-1.038 2.859,-2.246 4.759,-3.846c0.121,-0.313 0.737,-0.971 1.262,-1.367c0.879,-0.637 1.771,-0.883 2.329,-0.883c1.871,-0 0.625,1.041 -0.416,1.7c-0.713,0.466 -1.513,0.796 -1.913,1.179c-0.641,0.658 -0.525,1.296 -0.525,2.179c0.034,2.25 0.221,4.329 -0.737,6.617c-0.513,1.104 -1.617,2.629 -2.613,3.287c0.917,-0.333 2.267,-0.971 3.571,-1.783" style="fill:#315933;fill-rule:nonzero;"/><path d="M646.574,148.218c2.029,-1.371 3.229,-3.058 3.312,-4.171c0.067,-0.729 -0.258,-1.137 -0.971,-1.137c-0.75,-0 -1.941,0.791 -3.516,2.329c-1.3,1.212 -3.304,3.791 -4.284,5.387c1.613,-0.416 3.767,-1.279 5.459,-2.408m2.733,4.021c1.55,-1.063 3.375,-2.5 4.904,-3.867c0.484,-0.396 0.704,-0.483 0.892,-0.308c0.175,0.241 -0.188,0.658 -0.608,1.037c-1.084,0.975 -3.638,3.05 -5.08,4.038c-3.395,2.233 -6.35,3.271 -9.1,3.271c-2.983,-0 -4.329,-1.142 -4.245,-3.2c0.079,-1.609 0.791,-3.067 2.404,-4.992l-0.071,-0.083c-0.267,0.237 -1.15,1.054 -1.613,1.45c-0.4,0.312 -0.641,0.404 -0.804,0.254c-0.158,-0.254 0.163,-0.567 0.5,-0.892c1.025,-0.971 1.746,-1.537 2.938,-2.4c0.891,-0.662 2.404,-1.6 3.946,-2.425c2.32,-1.212 4.754,-2.221 6.9,-2.221l0.079,0c1.779,0 2.429,1.104 2.333,2.146c-0.171,2.079 -2.729,3.683 -5.112,4.9c-2.35,1.129 -5.08,2.075 -6.934,2.567c-0.321,0.637 -0.462,1.358 -0.462,1.85c-0,1.208 0.637,1.875 1.825,1.875c1.066,-0 3.746,-0.596 7.308,-3" style="fill:#315933;fill-rule:nonzero;"/><path d="M668.135,144.118c0,1.038 -1.958,2.729 -3.704,4.829c-1.371,1.596 -2.341,2.963 -2.733,3.775c-0.383,0.713 -0.383,1.3 -0.125,1.521c0.375,0.246 0.912,0.159 1.792,-0.325c0.908,-0.483 2.341,-1.354 3.65,-2.404c1.741,-1.367 2.704,-2.171 3.762,-3.142c0.579,-0.55 1.046,-0.795 1.204,-0.641c0.242,0.246 -0.337,0.716 -0.962,1.375c-0.979,0.883 -2.563,2.316 -4.6,3.841c-1.679,1.296 -4.471,3.221 -7.134,3.221c-1.683,0 -2.579,-0.9 -2.52,-2.083c0.1,-1.763 2.112,-4.008 3.908,-5.713c1.896,-1.825 4.971,-4.012 5.192,-4.566c0.312,-0.9 -1.184,-0.642 -3.221,-0.642c-0.796,0 -1.434,0 -1.854,-0.158c-0.621,0.696 -1.746,1.837 -3.046,3.05c-1.371,1.279 -2.321,2.162 -3.184,2.975c-0.75,0.625 -1.07,0.804 -1.212,0.625c-0.179,-0.154 0.062,-0.55 0.862,-1.284c0.992,-0.862 1.692,-1.525 3.163,-2.887c1.117,-1.042 2.158,-2.096 2.796,-2.821c-0.742,-0.45 -0.809,-1.596 -0,-2.567c0.621,-0.791 1.779,-1.345 3.025,-1.345c0.658,-0 1.4,0.304 1.487,0.795c-0.596,0.396 -0.871,0.621 -1.387,1.142c-1.05,1.108 -0.809,1.663 0.258,1.729c2.242,0.109 4.583,0.179 4.583,1.629l0,0.071Z" style="fill:#315933;fill-rule:nonzero;"/><path d="M688.7,131.268c1.025,0 1.533,0.884 0.542,2.079c-0.959,1.28 -2.963,2.167 -3.763,2.167c-0.4,-0.467 -0.5,-1.683 -0.083,-2.725c0.483,-1.208 1.692,-1.521 3.225,-1.521l0.079,0Zm-14.725,15.338c-1.192,0.971 -2.083,1.7 -2.867,2.425c-0.641,0.554 -0.995,0.804 -1.216,0.625c-0.171,-0.154 -0,-0.467 0.862,-1.284c0.888,-0.795 3.796,-3.216 5.721,-4.479c2.104,-1.475 3.171,-1.787 4.675,-1.787c1.683,-0 1.817,0.246 0.871,1.283c-1.475,1.613 -2.738,3.158 -4.367,5.158c-1.346,1.659 -2.287,3.121 -2.787,3.95c-0.488,0.867 -0.554,1.421 -0.25,1.746c0.416,0.334 1.137,0.159 1.933,-0.221c0.808,-0.416 2.179,-1.3 3.525,-2.425c1.717,-1.391 2.429,-2.012 3.729,-3.225c0.713,-0.641 1.034,-0.962 1.275,-0.704c0.229,0.221 -0.633,1.054 -0.9,1.279c-0.954,0.95 -2.958,2.721 -4.533,4c-1.646,1.296 -4.371,3.325 -7.025,3.325c-1.717,0 -2.438,-0.816 -2.438,-2.116c0,-1.017 0.571,-2.075 1.23,-3.046c1.591,-2.492 4.716,-5.779 6.016,-6.888c-0.571,0.221 -2.25,1.438 -3.454,2.384" style="fill:#315933;fill-rule:nonzero;"/><path d="M693.286,148.218c1.966,-1.371 3.179,-3.058 3.304,-4.171c0.05,-0.729 -0.254,-1.137 -0.963,-1.137c-0.766,-0 -1.958,0.791 -3.587,2.329c-1.258,1.212 -3.258,3.791 -4.238,5.387c1.613,-0.416 3.792,-1.279 5.484,-2.408m2.7,4.021c1.529,-1.063 3.379,-2.5 4.929,-3.867c0.458,-0.396 0.721,-0.483 0.883,-0.308c0.15,0.241 -0.162,0.658 -0.671,1.037c-1.033,0.975 -3.612,3.05 -5.062,4.038c-3.358,2.233 -6.342,3.271 -9.054,3.271c-2.959,-0 -4.346,-1.142 -4.292,-3.2c0.117,-1.609 0.808,-3.067 2.438,-4.992l-0.08,-0.083c-0.241,0.237 -1.112,1.054 -1.612,1.45c-0.417,0.312 -0.629,0.404 -0.8,0.254c-0.158,-0.254 0.171,-0.567 0.462,-0.892c1.046,-0.971 1.759,-1.537 2.992,-2.4c0.892,-0.662 2.4,-1.6 3.946,-2.425c2.312,-1.212 4.725,-2.221 6.917,-2.221l0.087,0c1.746,0 2.413,1.104 2.296,2.146c-0.133,2.079 -2.725,3.683 -5.138,4.9c-2.32,1.129 -5.083,2.075 -6.933,2.567c-0.283,0.637 -0.462,1.358 -0.462,1.85c-0,1.208 0.654,1.875 1.862,1.875c1.029,-0 3.763,-0.596 7.292,-3" style="fill:#315933;fill-rule:nonzero;"/><path d="M464.437,6.124c2.404,-3.758 0.737,-6.129 -2.271,-5.817l-0.204,0.05c-4.409,0.455 -7.792,1.746 -8.771,5.371c-0.846,3.134 -0.246,6.559 1.096,7.804c2.279,-0.258 7.77,-3.412 10.15,-7.408" style="fill:#315933;fill-rule:nonzero;"/><path d="M531.376,59.277c-5.434,8.642 -11.338,12.155 -15.721,12.021l-0.233,0c-4.192,-0.146 -6.909,-2.321 -6.559,-6.029c0.354,-3.242 3.463,-5.679 5.604,-6.787c3.055,-1.525 4.725,-3.321 5.284,-5.405c0.25,-0.929 0.071,-2.079 0.071,-2.079c2.112,-1.087 8.475,-4.604 11.825,-6.796c3.77,-2.425 9.037,-6.208 11.391,-8.454l0,0.246c-2.666,2.925 -7.283,16.704 -11.662,23.283m34.637,-9.07c-0.696,-0.709 -1.871,0.416 -3.05,1.316c-4.054,3.325 -9.066,7.338 -15.7,11.063c-3.783,2.2 -7.546,3.929 -10.371,4.775c2.834,-1.767 6.25,-6.075 7.713,-9.259c3.021,-6.408 2.779,-12.466 2.733,-18.962c0.088,-2.546 -0.075,-4.413 1.825,-6.208c1.234,-1.113 3.529,-1.959 5.709,-3.296c3.079,-1.767 6.654,-4.654 1.304,-4.846c-1.625,-0.038 -3.959,0.342 -6.804,2.354c-1.667,1.092 -2.871,2.438 -3.846,3.829c-5.479,4.446 -9.771,7.809 -14.079,10.659c-3.517,2.441 -8.509,5.3 -12.509,7.483c-0.45,-0.713 -2.266,-1.471 -3.675,-1.504c-4.616,-0.179 -8.941,3.637 -10.933,8.221c-2.129,1.562 -4.971,3.087 -8.063,4.591c-3.787,1.971 -9.429,4.342 -12.216,5.192c2.837,-1.767 7.4,-6.721 9.879,-11.292c3.221,-6.158 5.896,-16.291 5.833,-22.783c0.096,-2.563 -0.066,-4.433 1.834,-6.229c1.225,-1.109 3.579,-1.979 5.691,-3.275c3.054,-1.771 6.638,-4.659 1.329,-4.867c-1.633,-0.033 -4.212,0.346 -6.804,2.354c-1.2,0.884 -3.141,2.904 -3.858,3.809c-7.425,7.204 -13.85,12.783 -19.342,16.55c-3.566,2.429 -7.071,4.404 -9.946,6.17c-0.725,0.446 -1.675,1.346 -1.22,2.038c0.47,0.729 1.358,0.279 2.537,-0.379c2.154,-1.071 6.179,-3.496 9.296,-5.713c5.675,-3.979 11.4,-8.9 16.229,-13.866l0,0.22c-3.892,4.071 -10.542,23.342 -18.75,32.609c-5.792,6.541 -9.571,8.737 -14.221,8.566c-4.158,-0.141 -6.854,-2.304 -6.521,-6.025c0.309,-3.237 3.671,-5.675 5.563,-6.77c3.079,-1.75 4.771,-3.567 5.3,-5.625c0.558,-2.305 -0.783,-4.921 -4.017,-5.005c-2.312,-0.087 -4.654,0.796 -6.696,2.288c-0.625,0.204 -1.387,1.083 -2.654,2.512c-0.016,0.059 -0.087,0.096 -0.141,0.13c-3.259,3.816 -5.13,5.891 -9.525,10.325c-3.571,3.65 -7.205,6.595 -9.4,8.029c-2.188,1.387 -4.213,2.046 -5.475,1.262c-1,-0.808 -0.959,-2.475 0.154,-5.137c1.121,-2.459 3.441,-6.929 6.841,-12.188c3.988,-6.262 7.205,-11.05 10.85,-16.104c2.467,-3.304 1.896,-3.95 -2.945,-3.425c-4.342,0.479 -7.284,1.725 -12.83,6.542c-4.316,3.604 -10.2,9.596 -13.404,12.987c0,-0.141 0.104,-0.35 0,-0.45c-0.766,-0.604 -2.054,0.896 -3.079,1.942c-2.533,2.592 -6.075,6.683 -9.892,10.333c-3.42,3.375 -7.062,6.317 -9.695,8.017c-1.738,1.108 -4.217,2.042 -5.684,1.504c-1.929,-0.742 -1.558,-4.05 -0.446,-6.717c3.334,-8.5 9.967,-21.07 14.017,-27.1c5.267,-0.754 8.954,-1.154 14.046,-1.658c1.854,-0.208 3.962,-0.175 4.017,-1.575c0.116,-1.179 -1.517,-1.229 -3.325,-1.062c-3.717,0.383 -7.867,0.804 -13.171,1.6c4.025,-6.513 7.658,-11.996 12.371,-18.525c4.683,-6.567 9.975,-13.625 12.495,-16.471c-0.32,-0.671 -1.279,-1.259 -3.608,-1.021c-4.817,0.504 -9.808,6.375 -13.529,10.946c-4.825,5.621 -12.983,16.725 -19.258,26.246c-0.93,0.07 -3.434,0.345 -6.43,0.862c-3.675,0.625 -5.958,1.092 -6.079,2.05c-0.121,1.175 1.004,1.033 2.625,0.879c2.792,-0.275 5.313,-0.779 8.325,-1.091c-3.987,4.362 -9.666,10.562 -15.312,16.729c-1.492,1.571 -1.854,2.525 -1.354,2.941c0.516,0.409 1.204,0.121 2.65,-1.437c2.516,-2.821 5.008,-5.642 8.395,-9.017c-5.775,9.45 -10.262,18.317 -10.125,24.129c0.142,3.467 2.296,6.305 7.605,5.75c8.77,-0.9 16.45,-7.962 20.258,-11.633c3.321,-3.117 7.471,-7.55 10.354,-10.804c0.025,0.104 0.025,0.242 0.121,0.312c0.771,0.359 1.625,-0.42 3.287,-2.237c2.059,-2.321 4.4,-4.692 7.525,-7.825c3.205,-3.133 7.663,-7.117 9.163,-7.996c-3.342,3.629 -11.288,14.075 -15.129,21.729c-1.542,2.979 -2.829,6.125 -2.504,9.138c0.395,3.687 2.745,5.783 7.595,5.229c7.588,-0.825 14.796,-7.442 19.017,-11.629c2.45,-2.413 5.154,-5.338 7.558,-7.967c0,0.033 -0.016,0.071 -0.016,0.071c-1.142,6.471 1.146,13.987 13.2,14.383l0.229,0c6.967,0.225 15.425,-1.8 19.621,-3.529c4.475,-1.717 8.454,-3.45 14.137,-6.271c2.138,-1.087 4.025,-2.162 5.913,-3.271c-1.654,7.605 1.375,14.442 13.212,14.817c6.942,0.246 15.375,-1.796 19.621,-3.529c4.446,-1.7 9.617,-4.083 14.833,-7.392c5.225,-3.308 9.775,-6.875 12.163,-8.879c2.117,-1.787 3.108,-3.158 2.658,-3.637" style="fill:#315933;fill-rule:nonzero;"/><path d="M729.581,46.065c3.734,-2.437 3.188,-5.295 0.329,-6.233l-0.216,-0.083c-4.184,-1.371 -7.779,-1.588 -10.192,1.283c-2.037,2.492 -2.908,5.883 -2.271,7.579c2.217,0.725 8.542,0.1 12.35,-2.546" style="fill:#315933;fill-rule:nonzero;"/><path d="M589.839,47.433c5.083,-3.913 8.829,-5.813 10.883,-5.609c2.05,0.246 2.855,1.492 2.43,3.534c-0.584,3.187 -4.546,7.687 -10.755,10.975c-5.208,2.716 -11.675,4.591 -16.42,5.229c3.237,-4.309 9.833,-11.059 13.862,-14.129m138.896,36.966c6.033,-2.108 10.175,-2.783 12.071,-1.916c1.929,0.862 2.271,2.283 1.204,4.083c-1.563,2.875 -6.763,5.883 -13.642,7.104c-5.771,0.929 -12.525,0.683 -17.237,-0.167c4.45,-3.1 12.808,-7.454 17.604,-9.104m19.529,18.767c-5.629,1.767 -12.246,3.379 -17.492,4.308c-12.17,2.134 -20.012,0.371 -22.783,-0.875c-3.154,-1.421 -4.083,-3.883 -2.629,-7.046c0.562,-1.266 1.821,-2.979 3.462,-4.295c5.434,0.933 13.775,1.641 21.238,1.45c7.75,-0.313 16.454,-1.488 19.35,-6.784c1.433,-2.666 1.075,-6.375 -3.558,-8.483l-0.2,-0.108c-5.713,-2.559 -13.296,-2.68 -20.85,-2.284c-4.996,0.3 -10.155,1.009 -13.246,1.667c-2.629,0.55 -4.621,1.037 -6.663,1.587c0.279,-0.275 0.421,-0.55 0.321,-0.791c-0.467,-0.867 -1.637,-0.279 -4.2,0.829c-4.587,2.146 -7.204,3.25 -13.042,5.471c-4.758,1.871 -9.316,3.05 -11.858,3.429c-2.562,0.362 -4.712,0.171 -5.537,-1.075c-0.575,-1.175 0.129,-2.65 2.287,-4.638c2.075,-1.77 5.988,-4.883 11.246,-8.245c6.233,-4.084 11.146,-7.096 16.575,-10.213c3.587,-1.971 3.342,-2.808 -1.267,-4.329c-4.204,-1.35 -7.383,-1.421 -14.366,0.658c-5.825,1.596 -14.567,5.004 -18.546,6.684c0.558,-0.484 0.916,-0.917 0.641,-1.296c-0.329,-0.559 -1.845,-0.179 -3.8,1.054c-3.583,2.079 -6.741,3.737 -12.62,6.496c-4.284,2.137 -8.896,3.721 -11.684,4.533c-2.804,0.808 -4.429,0.675 -5.166,-0.192c-0.78,-0.883 -0.442,-2.458 1.162,-4.258c1.617,-2.008 5.204,-5.267 10.058,-8.954c6.292,-4.792 12.78,-8.346 13.459,-11.267l0.029,-0.246c0.892,-4.083 -5.638,-5.766 -11.913,-7.408c-2.895,-0.85 -3.233,-2.583 0.417,-5.108c1.675,-1.054 2.717,-1.542 4.563,-2.342c0.05,-1.4 -1.771,-2.733 -3.592,-3.167c-3.638,-0.775 -7.146,0.092 -9.446,1.98c-2.883,2.212 -3.375,5.416 -1.612,7.212c-2.255,1.667 -5.867,3.95 -9.696,6.2c-4.879,2.942 -7.35,4.313 -10.592,6.2c0.225,-0.362 0.317,-0.729 0.167,-1.008c-0.392,-0.517 -1.125,-0.359 -2.617,0.646c-4.833,3.445 -10.558,7.029 -15.267,9.558c-10.916,5.833 -18.945,6.596 -21.92,6.267c-3.463,-0.363 -5.105,-2.405 -4.721,-5.871c0.158,-1.384 0.846,-3.413 1.946,-5.142c5.445,-0.817 13.6,-2.758 20.62,-5.267c7.309,-2.716 15.184,-6.52 16.3,-12.483c0.546,-2.975 -0.945,-6.383 -6.033,-6.925l-0.225,-0.033c-6.233,-0.675 -13.479,1.558 -20.542,4.329c-4.625,1.821 -9.316,4.117 -12.029,5.7c-3.725,2.137 -5.975,3.562 -9.287,6.004c-1.017,0.8 -2.038,1.629 -1.659,2.388c0.388,0.504 1.159,0.35 2.38,-0.446c1.516,-1.009 4.295,-3.046 5.066,-3.671l0.217,0.275c-5.225,5.017 -7.742,8.967 -8.467,13.542c-0.9,5.975 2.709,9.625 11.246,10.541c7.833,0.85 16.663,-1.229 27.042,-6.629c3.987,-2.079 10.641,-6.375 14.441,-9.004c-0.037,0.104 -0.058,0.204 0,0.292c0.367,0.57 1.367,0.312 3.805,-1.059c3.016,-1.691 6.283,-3.6 10.908,-6.366c4.375,-2.596 8.267,-5.071 10.529,-6.7c1.054,0.708 2.858,1.087 5.096,1.608c5.696,1.246 10.142,1.525 8.687,3.812c-1.041,1.438 -11.025,5.642 -17.633,9.642c-5.996,3.654 -13.079,8.758 -14.392,13.679c-0.987,3.359 0.955,6.388 5.705,7.459c7.495,1.666 16.608,-2.042 22.162,-4.6c5.554,-2.567 10.175,-5.075 13.488,-6.963c-0,0.071 -0.03,0.138 -0,0.208c0.516,0.659 1.62,0.313 3.912,-0.662c2.833,-1.263 5.896,-2.421 10.088,-4c4.175,-1.571 9.891,-3.338 11.637,-3.492c-4.508,1.921 -16.092,8.138 -22.758,13.504c-2.634,2.063 -5.129,4.417 -6.05,7.288c-1.184,3.529 0.091,6.375 4.737,7.896c7.246,2.425 16.542,-0.638 22.121,-2.721c4.388,-1.625 9.717,-3.858 13.492,-5.588c0.371,0.275 0.954,0.363 2.046,0.088c1.762,-0.504 5.008,-1.575 5.929,-1.925l0.141,0.312c-6.516,3.146 -10.166,6.125 -12.25,10.246c-2.737,5.404 -0.466,9.996 7.359,13.525c7.171,3.242 16.241,4.034 27.787,2.129c4.963,-0.829 14.209,-3.27 18.121,-4.554c1.763,-0.483 3.067,-1.162 2.946,-1.991c-0.238,-0.621 -0.975,-0.688 -2.721,-0.192" style="fill:#315933;fill-rule:nonzero;"/><path d="M284.053,87.553c-3.079,8.192 -5.625,11.687 -9.987,13.283c-3.917,1.434 -7.275,0.409 -8.309,-3.158c-0.854,-3.113 1.317,-6.65 2.663,-8.375c2.183,-2.775 3.046,-5.058 2.804,-7.167c-0.258,-1.683 -1.475,-3.05 -3.204,-3.362c2.946,-5.763 6.038,-11.304 9.046,-15.375c1.246,-1.696 3.267,-2.738 4.292,-3.029c7.55,-2.23 6.3,17.554 2.695,27.183m25.071,-21.558c-0.9,-0.363 -1.833,1.52 -2.504,3.045c-1.112,2.634 -9.204,14.342 -14.117,20.117c2.18,-2.558 4.292,-9.017 5.013,-14.158c1.567,-11.792 -3.163,-23.617 -13.704,-20.184c-7.763,2.559 -15.009,12.359 -22.396,27.213c-1.488,1.75 -2.546,3.983 -3.038,6.404c-3.808,8.279 -7.675,17.804 -11.67,28.313c6.829,-24.463 14.583,-57.917 18.979,-69.984c2.058,-5.75 2.733,-7.391 -2.029,-5.454c-2.992,1.246 -5.109,4.621 -6.588,7.738c-4.379,9.37 -9.579,20.533 -12.142,25.866c-2.475,5.542 -6.02,13.317 -8.991,19.534c-1.321,2.825 -2.225,4.933 -1.292,5.333c0.879,0.362 1.542,-1.163 2.608,-3.346c2.171,-4.429 7.496,-15.2 13.38,-28.387c-7.975,26.416 -13.317,50.308 -19.996,74.133c-1.638,5.854 -2.729,7.396 2.012,5.454c3,-1.267 6.884,-4.587 8.35,-7.725c4.017,-8.429 14.042,-33.462 18.225,-42.887c2.092,5.2 7.088,9.112 16.721,5.612l0.229,-0.087c6.534,-2.392 13.692,-7.342 16.888,-10.613c8.033,-8.237 14.387,-19.233 15.5,-22.437c0.321,-0.921 1.462,-3.117 0.562,-3.5" style="fill:#315933;fill-rule:nonzero;"/><path d="M337.406,75.031c-4.841,7.033 -12.312,13.925 -16.612,14.908c-1.592,0.346 -2.892,-0.05 -3.492,-1.608c-1.083,-2.821 1.433,-9.592 8.654,-20.709c6.338,-9.987 13.125,-17.937 17.629,-18.958c2.475,-0.571 4.567,0.158 4.984,3.15c0.608,3.688 -5.367,15.233 -11.163,23.217m38.95,-19.217c-0.846,-0.533 -1.712,0.833 -2.812,2.288c-1.971,2.825 -4.909,6.783 -8.796,11.72c-2.958,3.759 -6.583,7.671 -8.592,9.3c-1.587,1.317 -3.679,2.738 -5.029,2.08c-1.033,-0.488 -1.471,-2.288 -0.467,-5.355c1.23,-4.07 3.288,-8.587 5.413,-12.862c3.454,-6.963 7.15,-13.75 9.325,-17.817c1.687,-3.208 0.942,-4.241 -3.75,-2.946c-3.633,0.817 -6.821,4.646 -10.958,11.513c0.462,-4.154 -2.013,-7.875 -6.696,-7.55c-6.088,0.421 -13.4,4.942 -21.213,11.45c-3.783,3.237 -7.079,6.579 -8.966,8.671c-1.942,2.096 -5.075,6.129 -5.592,6.962c-1.958,2.817 -2.804,4.434 -2.179,4.984c0.55,0.383 1.083,-0.238 1.825,-1.105c1.129,-1.458 1.866,-2.562 2.358,-3.375l0.321,0.155c-3.038,5.675 -4.05,9.695 -3.704,13.187c0.704,7.467 6.346,8.333 11.308,6.988c8.492,-2.396 17.242,-12.213 21.933,-18.725l0.242,0.179c-1.433,2.941 -2.075,6.4 -1.283,8.846c0.846,2.666 3.312,4.241 7.621,3.27c7.479,-1.662 13.72,-8.791 17.42,-13.416c3.517,-4.35 7.88,-10.338 10.242,-13.734c1.983,-2.804 2.846,-4.225 2.029,-4.708" style="fill:#315933;fill-rule:nonzero;"/><path d="M333.4,34.831l12.021,5.362l1.708,-1.762l-14.733,-10.833l-11.167,14.47l2.092,1.23l10.079,-8.467Z" style="fill:#315933;fill-rule:nonzero;"/></g></svg>