<!--?xml version="1.0" encoding="utf-8"?-->
<!-- Generator: Adobe Illustrator 19.1.1, SVG Export Plug-In . SVG Version: 6.00 Build 0)  -->
<svg version="1.1" id="_x31_0" xmlns="http://www.w3.org/2000/svg" xmlns:xlink="http://www.w3.org/1999/xlink" x="0px" y="0px" viewBox="0 0 512 512" style="width: 256px; height: 256px; opacity: 1;" xml:space="preserve">
<style type="text/css">
	.st0{fill:#374149;}
</style>
<g>
	<path class="st0" d="M180.044,441.396c31.762,23.414,65.976,43.122,101.683,58.551c17.914,7.738,29.914,11.648,36.683,11.949
		l0.926,0.019c25.132,0,57.59-47.046,61.453-62.316c4.609-18.258-2.004-37.535-16.859-49.113l-33.672-26.258
		c-8.414-6.559-18.504-10.028-29.176-10.028c-11.91,0-23.332,4.43-32.148,12.465c-5.195,4.738-12.172,11.406-16.074,16.43
		c-0.145,0.09-0.504,0.242-1.266,0.242c-14.074,0-63.355-42.871-76.523-56.582c-13.906-13.352-57.238-63.191-56.484-76.718
		c0.05-0.891,0.316-1.094,0.402-1.164c4.843-3.703,11.519-10.684,16.266-15.891c15.691-17.214,16.718-43,2.437-61.312l-26.258-33.68
		c-1.988-2.55-4.43-5-7.855-7.808c-1.301-1.035-2.633-2.008-4.535-3.211c-5.973-3.718-12.55-6.023-19.691-6.867
		c-1.926-0.222-3.867-0.336-5.821-0.336c-3.847,0-7.625,0.461-11.21,1.371c-13.457,3.394-63.488,35.878-62.301,62.378
		c0.309,6.774,4.218,18.774,11.953,36.676c15.461,35.778,35.199,70.039,58.66,101.832
		C101.411,373.834,138.223,410.634,180.044,441.396z" style="fill: rgb(49, 89, 51);"></path>
	<path class="st0" d="M512,265.807c-2.012-70.16-30.293-135.832-80.148-185.691C383.055,31.319,318.895,3.28,250.11,0.296
		c-1.266-0.059-2.524-0.172-3.794-0.211v0.008c-0.054,0-0.106-0.004-0.16-0.008l-0.043,40.313
		c59.485,1.98,115.058,26.027,157.246,68.21c42.187,42.191,66.273,97.75,68.316,157.195L512,265.807z" style="fill: rgb(49, 89, 51);"></path>
	<path class="st0" d="M431.367,265.803c-2.023-48.672-21.91-94.114-56.5-128.703c-33.652-33.652-77.632-53.214-124.858-56.062
		c-1.238-0.078-2.454-0.281-3.696-0.336v0.016c-0.054-0.004-0.109-0.012-0.164-0.016l-0.035,40.352
		c37.993,1.976,73.34,17.617,100.262,44.538c26.973,26.973,42.656,62.305,44.653,100.211H431.367z" style="fill: rgb(49, 89, 51);"></path>
	<path class="st0" d="M249.145,161.737c-0.949-0.094-1.878-0.27-2.832-0.34v0.016c-0.05-0.004-0.105-0.012-0.156-0.016
		l-0.043,40.461c16.426,1.809,31.566,9.008,43.278,20.719c11.758,11.758,18.988,26.878,20.82,43.226h37.473l2.73,0.011v-0.011h0.16
		c-1.894-27.141-13.336-52.363-32.691-71.719C299.242,175.444,275.142,164.241,249.145,161.737z" style="fill: rgb(49, 89, 51);"></path>
</g>
</svg>
